<?xml version="1.0" encoding="utf-8"?>
<!-- Generator: Adobe Illustrator 16.0.0, SVG Export Plug-In . SVG Version: 6.00 Build 0)  -->
<svg version="1.2" baseProfile="tiny" id="Layer_1" xmlns="http://www.w3.org/2000/svg" xmlns:xlink="http://www.w3.org/1999/xlink"
	 x="0px" y="0px" width="160px" height="226px" viewBox="0 0 160 226" xml:space="preserve">
<g>
	<rect x="1.53" y="172.137" fill="#FFFFFF" width="156.94" height="6.364"/>
	<rect x="32.048" y="219.188" fill="#FFFFFF" width="89.042" height="4.985"/>
	<path fill="#FFFFFF" d="M107.378,219.52c0,0-15.4,0.665-19.731-8.219c-7.476-15.333-6.979-33.453-6.979-33.453l-3.739,0.122
		l-3.737-0.122c0,0,0.498,18.12-6.978,33.453c-4.332,8.884-20.233,8.219-20.233,8.219h30.948H107.378z"/>
	<path fill="#FFFFFF" d="M59.73,38.941c2.266,0,4.167,1.496,4.83,3.547c0.663-2.05,2.565-3.547,4.83-3.547
		c2.266,0,4.167,1.496,4.832,3.547c0.661-2.05,2.563-3.547,4.829-3.547c2.267,0,4.168,1.496,4.829,3.547
		c0.663-2.05,2.564-3.547,4.832-3.547c2.265,0,4.166,1.496,4.83,3.547c0.661-2.05,2.565-3.547,4.831-3.547
		c1.816,0,3.39,0.971,4.284,2.411V27.727H78.272c0.173-0.539,0.298-1.141,0.511-1.396c0.417-0.501,3.163-1.748,5.076-2.996
		c1.914-1.247,1.248-4.659,1.248-5.075c0-0.414,0.915-0.666,1.165-1.081c0.251-0.416,1.497-1.663,2.412-2.081
		c0.167-0.075,0.335-0.13,0.5-0.165l3.17,3.333c-0.066,0.175-0.127,0.342-0.174,0.494c-0.5,1.58,0.083,2.912,1.496,2.663
		c1.416-0.249,0.083-1.996,0-2.579c-0.07-0.484,2.161-3.671,2.963-6.263c0.375-0.137,0.616-0.228,0.616-0.228h0.914l0.167,0.746
		l2.414-1.661l-2.581-1.332v1.248l-1.28,0.124c0.016-0.129,0.028-0.251,0.03-0.375c0.082-2.66-4.908-5.572-5.158-5.824
		c-0.248-0.248,0.667-0.582,0.75-1.163c0.083-0.583-1.665-0.999-1.916-0.249c-0.249,0.746,0.25,2.744,0.25,2.744
		s-2.495,4.907-2.746,4.907c-0.248,0-0.414-0.499-1.081-0.666c-0.666-0.165,0.5-0.913,0.5-0.913l0.581-0.582c0,0,0-0.75,0.417-0.916
		c0.416-0.167,0.165-0.917,0.165-1.332c0-0.413,0.168-2.578,0.084-2.912c-0.084-0.33-0.333-0.08-0.749-0.08s-0.416-0.666-0.5-1.082
		c-0.083-0.418-0.5-0.667-0.917-0.749c-0.414-0.083-0.998-0.083-1.247-0.249c-0.249-0.166-0.915-0.334-1.166-0.082
		c-0.248,0.248-0.666,0.582-1.831,1.497c-1.165,0.914-2.412,3.245-1.081,4.325c1.331,1.081,1.583,2.496,0.999,2.744
		c-0.582,0.249-2.745-3.161-3.744-3.824c-1-0.667-4.494,2.828-4.825,2.911c-0.333,0.083-1.498-0.083-1.831,0.333
		c-0.333,0.414,1.415,1.164,1.415,1.164s-1.25,0.249-1.331,0.5c-0.082,0.25,1.581,0.334,1.665,0.748
		c0.083,0.415-1.083,0.668-1.167,1.081c-0.082,0.417,1.58-0.082,1.665,0.249c0.081,0.334-1,0.75-0.833,0.999
		c0.167,0.25,1.497-0.333,1.829-0.333c0.333,0-0.332,1.083,0,1.33c0.333,0.251,0.917-0.581,1.166-0.164
		c0.249,0.415,0.082,0.334,0.582,0.415c0.499,0.081,0.581,0.333,1.165-0.081c0.582-0.417-0.25,0.83-1.083,1.746
		c-0.831,0.916-1.329,0.916-2.413,0.25c-1.081-0.667-1.33-1.582-1.664-1.332c-0.333,0.249-0.582,0.416-1.081,0.166
		c-0.498-0.249-1.747,0.083-2.163,0.666c-0.416,0.583,0.5,0.999,1.748,1.498c1.248,0.498,2.248,2.912,4.993,3.496
		c2.745,0.58,3.164-2.665,3.411-1c0.248,1.664-2.495,2.663-3.244,2.746c-0.748,0.08,0.167,0.915-0.416,1.662
		c-0.316,0.406-0.159,1.277,0.202,1.979H55.084v14.311C55.865,40.227,57.635,38.941,59.73,38.941z M92.728,17.312l-2.429-2.431
		c0.185,0.023,0.299,0.051,0.299,0.051c1.495-0.416,1.665-0.833,3.161-1.331c0.085-0.026,0.171-0.057,0.258-0.085
		C93.788,14.726,93.203,16.139,92.728,17.312z M91.348,7.36c0.231-0.46,2.175,2.503,2.658,4.396l-3.574,0.347
		c0,0-0.083-0.582-0.333-0.749c-0.25-0.167-0.415,0.583-0.585,0.167C89.35,11.104,91.097,7.861,91.348,7.36z"/>
	<path fill="#FFFFFF" d="M148.258,131.158v26.877c0,6.627,0,12,0,12H7.216c0,0,0-5.373,0-12v-26.877c0-6.627,5.373-12,12-12h5
		v-41.17c0-6.627,5.373-12,12-12h5.304V39.932c0-6.627,5.373-12,12-12h50.625c6.627,0,12,5.373,12,12v26.057h5.113
		c6.627,0,12,5.373,12,12v41.17h3C142.886,119.158,148.258,124.531,148.258,131.158z M47.25,63.393
		c-1.253,0-2.269,1.016-2.269,2.269s1.016,2.269,2.269,2.269c1.253,0,2.269-1.016,2.269-2.269S48.503,63.393,47.25,63.393z
		 M56.353,63.393c-1.253,0-2.269,1.016-2.269,2.269s1.016,2.269,2.269,2.269c1.253,0,2.269-1.016,2.269-2.269
		S57.606,63.393,56.353,63.393z M65.456,63.393c-1.253,0-2.269,1.016-2.269,2.269s1.016,2.269,2.269,2.269
		c1.253,0,2.269-1.016,2.269-2.269S66.709,63.393,65.456,63.393z M74.559,63.393c-1.253,0-2.269,1.016-2.269,2.269
		s1.016,2.269,2.269,2.269c1.253,0,2.269-1.016,2.269-2.269S75.812,63.393,74.559,63.393z M83.662,63.393
		c-1.253,0-2.269,1.016-2.269,2.269s1.016,2.269,2.269,2.269c1.253,0,2.269-1.016,2.269-2.269S84.915,63.393,83.662,63.393z
		 M92.765,63.393c-1.253,0-2.269,1.016-2.269,2.269s1.016,2.269,2.269,2.269c1.253,0,2.269-1.016,2.269-2.269
		S94.018,63.393,92.765,63.393z M101.868,63.393c-1.253,0-2.269,1.016-2.269,2.269s1.016,2.269,2.269,2.269
		c1.253,0,2.269-1.016,2.269-2.269S103.121,63.393,101.868,63.393z M110.971,63.393c-1.253,0-2.269,1.016-2.269,2.269
		s1.016,2.269,2.269,2.269c1.253,0,2.269-1.016,2.269-2.269S112.224,63.393,110.971,63.393z M28.327,116.89
		c-1.253,0-2.269,1.016-2.269,2.269s1.016,2.269,2.269,2.269c1.253,0,2.269-1.016,2.269-2.269S29.58,116.89,28.327,116.89z
		 M37.43,116.89c-1.253,0-2.269,1.016-2.269,2.269s1.016,2.269,2.269,2.269c1.253,0,2.269-1.016,2.269-2.269
		S38.683,116.89,37.43,116.89z M46.533,116.89c-1.253,0-2.269,1.016-2.269,2.269s1.016,2.269,2.269,2.269
		c1.253,0,2.269-1.016,2.269-2.269S47.786,116.89,46.533,116.89z M55.636,116.89c-1.253,0-2.269,1.016-2.269,2.269
		s1.016,2.269,2.269,2.269c1.253,0,2.269-1.016,2.269-2.269S56.889,116.89,55.636,116.89z M64.739,116.89
		c-1.253,0-2.269,1.016-2.269,2.269s1.016,2.269,2.269,2.269c1.253,0,2.269-1.016,2.269-2.269S65.992,116.89,64.739,116.89z
		 M73.842,116.89c-1.253,0-2.269,1.016-2.269,2.269s1.016,2.269,2.269,2.269c1.253,0,2.269-1.016,2.269-2.269
		S75.095,116.89,73.842,116.89z M82.945,116.89c-1.253,0-2.269,1.016-2.269,2.269s1.016,2.269,2.269,2.269
		c1.253,0,2.269-1.016,2.269-2.269S84.198,116.89,82.945,116.89z M92.048,116.89c-1.253,0-2.269,1.016-2.269,2.269
		s1.016,2.269,2.269,2.269c1.253,0,2.269-1.016,2.269-2.269S93.301,116.89,92.048,116.89z M101.151,116.89
		c-1.253,0-2.269,1.016-2.269,2.269s1.016,2.269,2.269,2.269c1.253,0,2.269-1.016,2.269-2.269S102.404,116.89,101.151,116.89z
		 M110.254,116.89c-1.253,0-2.269,1.016-2.269,2.269s1.016,2.269,2.269,2.269c1.253,0,2.269-1.016,2.269-2.269
		S111.507,116.89,110.254,116.89z M119.357,116.89c-1.253,0-2.269,1.016-2.269,2.269s1.016,2.269,2.269,2.269
		c1.253,0,2.269-1.016,2.269-2.269S120.61,116.89,119.357,116.89z M128.46,116.89c-1.253,0-2.269,1.016-2.269,2.269
		s1.016,2.269,2.269,2.269c1.253,0,2.269-1.016,2.269-2.269S129.713,116.89,128.46,116.89z"/>
</g>
</svg>
