<?xml version="1.0" encoding="utf-8"?>
<!-- Generator: Adobe Illustrator 16.0.0, SVG Export Plug-In . SVG Version: 6.00 Build 0)  -->
<svg version="1.2" baseProfile="tiny" id="Layer_1" xmlns="http://www.w3.org/2000/svg" xmlns:xlink="http://www.w3.org/1999/xlink"
	 x="0px" y="0px" width="114px" height="154px" viewBox="0 0 114 154" xml:space="preserve">
<g>
	<path fill="#FFFFFF" d="M106.541,64.99c-2.866-19.955-17.387-36.132-36.444-41.427c-2.112,6.048-7.844,10.392-14.606,10.392
		c-6.548,0-12.133-4.073-14.401-9.819C22.982,29.959,9.348,45.712,6.583,64.99H106.541z"/>
	<path fill="#FFFFFF" d="M1.747,67.915l24.978,84.173h60.057l2.609-8.415l22.862-75.758H1.747z M28.777,132.561L12.793,85.168
		l1.995-0.29l15.984,47.38L28.777,132.561z M35.862,132.53L23.694,85.142l1.993-0.209l11.838,47.518L35.862,132.53z M41.992,132.492
		L33.65,85.106l1.875-0.161l8.34,47.387L41.992,132.492z M50.034,132.451l-4.522-47.376l2.014-0.099l4.519,47.387L50.034,132.451z
		 M57.125,132.421l-0.702-47.393l1.935-0.014l0.698,47.385L57.125,132.421z M65.907,132.442l-1.688-0.063l3.121-47.386l1.694,0.06
		L65.907,132.442z M71.306,132.343l6.954-47.388l1.526,0.133l-6.949,47.387L71.306,132.343z M78.412,132.309l10.766-47.392
		l1.482,0.208l-10.772,47.392L78.412,132.309z M86.405,132.553l-1.688-0.279l14.588-47.39L101,85.161L86.405,132.553z"/>
	<path fill="none" stroke="#FFFFFF" stroke-width="1.781" stroke-miterlimit="10" d="M40.57,18.299
		c0.015,7.964,6.457,14.405,14.421,14.421c7.969-0.016,14.408-6.457,14.421-14.421c-0.013-7.976-6.452-14.413-14.421-14.428
		C47.027,3.886,40.585,10.323,40.57,18.299z M39.502,18.299c0-8.563,6.934-15.492,15.489-15.496c8.555,0,15.486,6.933,15.486,15.496
		c0,8.552-6.932,15.489-15.486,15.489S39.502,26.851,39.502,18.299z"/>
	<path fill="#FFFFFF" d="M56.644,10.953c-1.191,0.375-2.133,1.177-2.715,2.185c0.186-0.097,0.381-0.171,0.582-0.241
		c2.443-0.773,5.062,0.572,5.837,3.02c0.484,1.52,0.144,3.109-0.769,4.276l0.003-0.007c2.552-0.812,3.964-3.537,3.152-6.093
		C61.923,11.547,59.197,10.138,56.644,10.953"/>
</g>
</svg>
