<?xml version="1.0" encoding="utf-8"?>
<!-- Generator: Adobe Illustrator 16.0.0, SVG Export Plug-In . SVG Version: 6.00 Build 0)  -->
<svg version="1.2" baseProfile="tiny" id="Layer_1" xmlns="http://www.w3.org/2000/svg" xmlns:xlink="http://www.w3.org/1999/xlink"
	 x="0px" y="0px" width="180px" height="77px" viewBox="-0.387 -17.948 180 77" xml:space="preserve">
<g>
	<g>
		<g>
			<g>
				<g>
					<g>
						<g>
							<g>
								<path fill="#2D1A18" d="M174.795-3.306l0.002,1.056l0.885-0.001l0.16-0.017l0.163-0.01l0.131-0.032l0.086-0.033l0.043-0.056
									l0.037-0.031l0.041-0.041l0.026-0.044l0.021-0.062l0.018-0.069l0.012-0.066v-0.085l-0.012-0.113l-0.02-0.121l-0.021-0.033
									l-0.028-0.05L176.3-3.161l-0.028-0.032l-0.045-0.018l-0.051-0.041l-0.064-0.023l-0.057-0.011l-0.159-0.026l-0.184,0.001
									L174.795-3.306z M174.237-3.816l1.478-0.002l0.247,0.007l0.199,0.006l0.176,0.045l0.123,0.027l0.122,0.073l0.098,0.08
									l0.087,0.09l0.086,0.116l0.034,0.118l0.055,0.138l0.031,0.142l0.016,0.143l-0.016,0.137l-0.011,0.121l-0.042,0.105
									l-0.045,0.114l-0.05,0.064l-0.071,0.084l-0.102,0.09l-0.118,0.071l0.118,0.064l0.085,0.071l0.077,0.068l0.053,0.076
									l0.021,0.092l0.032,0.119l0.026,0.14v0.189v0.39l0.018,0.149l0.015,0.112l0.032,0.112l0.051,0.1l0.084,0.106L176.5-0.256
									l-0.018-0.122l-0.02-0.13l-0.026-0.126l-0.015-0.149l-0.032-0.442l-0.009-0.121l-0.014-0.082l-0.026-0.081L176.3-1.561
									l-0.026-0.047l-0.028-0.052L176.2-1.682l-0.056-0.041h-0.079l-0.089-0.027h-0.135h-0.145l-0.9,0.002l0.004,1.495
									l-0.556,0.001L174.237-3.816z M178.19-2.026l-0.021-0.173l-0.01-0.163l-0.026-0.183l-0.046-0.169l-0.041-0.172l-0.075-0.157
									l-0.066-0.168l-0.089-0.156l-0.09-0.139l-0.093-0.146l-0.108-0.14l-0.13-0.126l-0.127-0.106l-0.122-0.106l-0.15-0.12
									l-0.147-0.087l-0.151-0.08l-0.168-0.078l-0.156-0.06l-0.159-0.047l-0.162-0.052l-0.187-0.018l-0.16-0.022h-0.187h-0.171
									l-0.163,0.023l-0.187,0.02l-0.162,0.052l-0.162,0.048l-0.154,0.061l-0.176,0.076l-0.159,0.082l-0.15,0.085l-0.127,0.123
									l-0.15,0.106l-0.123,0.108l-0.122,0.125l-0.096,0.141l-0.113,0.146l-0.093,0.139l-0.08,0.156l-0.072,0.17l-0.053,0.16
									l-0.053,0.169l-0.032,0.179l-0.045,0.173l-0.007,0.171l-0.012,0.176l0.016,0.18l0.005,0.164l0.045,0.169l0.034,0.178
									l0.054,0.157l0.053,0.154l0.074,0.171l0.08,0.157l0.089,0.159l0.119,0.133l0.092,0.137l0.125,0.132l0.124,0.097l0.148,0.111
									l0.136,0.099l0.143,0.101l0.158,0.072l0.178,0.085l0.153,0.063l0.164,0.052l0.162,0.036l0.186,0.03l0.162,0.021l0.174-0.001
									h0.186l0.159-0.021l0.185-0.032l0.165-0.033l0.159-0.052l0.152-0.067l0.168-0.084l0.153-0.073l0.15-0.1l0.146-0.1
									l0.121-0.111l0.136-0.099l0.119-0.138l0.108-0.132l0.095-0.134l0.088-0.161l0.088-0.156l0.065-0.17l0.075-0.154l0.039-0.163
									l0.044-0.171l0.028-0.171l0.01-0.176L178.19-2.026z M178.613-2.027L178.6-1.832l-0.01,0.211l-0.027,0.196l-0.051,0.205
									l-0.072,0.181l-0.056,0.195l-0.078,0.186l-0.103,0.177l-0.112,0.172l-0.112,0.16l-0.124,0.158l-0.14,0.152l-0.14,0.141
									l-0.164,0.117l-0.162,0.127l-0.184,0.1l-0.172,0.107l-0.186,0.073l-0.195,0.075l-0.184,0.07l-0.188,0.047l-0.197,0.027
									l-0.208,0.027h-0.209l-0.204,0.001l-0.191-0.026l-0.209-0.025l-0.191-0.047l-0.183-0.071l-0.193-0.073l-0.188-0.071
									l-0.175-0.098l-0.18-0.107l-0.168-0.126l-0.149-0.116l-0.152-0.135l-0.124-0.158l-0.14-0.157l-0.121-0.142l-0.104-0.19
									l-0.101-0.177l-0.09-0.183l-0.069-0.197l-0.051-0.179l-0.049-0.201L172.46-1.6l-0.024-0.197l-0.015-0.207l0.014-0.195
									l0.025-0.221l0.032-0.192l0.051-0.198l0.045-0.182l0.072-0.19l0.09-0.186l0.099-0.19l0.103-0.176l0.119-0.153l0.141-0.169
									l0.124-0.142l0.149-0.15l0.152-0.123l0.164-0.113l0.178-0.118l0.177-0.087l0.19-0.081l0.174-0.076l0.197-0.053l0.19-0.054
									l0.21-0.024l0.193-0.029l0.201-0.008l0.212,0.008l0.206,0.027l0.198,0.025l0.189,0.052l0.186,0.052l0.194,0.076l0.185,0.08
									l0.173,0.085l0.168,0.118l0.17,0.114l0.162,0.123l0.146,0.136l0.145,0.155l0.111,0.167l0.127,0.157l0.103,0.164l0.098,0.198
									l0.094,0.167l0.058,0.195l0.07,0.187l0.052,0.207l0.026,0.181l0.013,0.207L178.613-2.027z M157.326-0.988l0.766,0.211
									l0.747,0.177l0.753,0.159l0.717,0.132l1.411,0.252l1.333,0.245l0.64,0.122l0.62,0.131l0.603,0.147l0.578,0.146l0.566,0.187
									l0.537,0.185l0.512,0.251l0.493,0.243l0.476,0.307l0.44,0.332l0.423,0.382l0.396,0.428l0.359,0.486l0.369,0.541l0.305,0.584
									l0.296,0.662l0.277,0.725l0.222,0.797l0.227,0.885l0.168,0.954l0.146,1.038l0.12,1.134l0.091,1.214l0.062,1.326l0.017,0.264
									v0.304l0.012,0.371l0.023,0.417l0.007,0.461l0.032,0.483l0.011,0.529l0.017,0.557l0.014,0.59l0.002,0.608l0.002,0.628v0.649
									l-0.009,0.663l-0.025,0.669l-0.054,0.685l-0.03,0.682l-0.069,0.948l-0.063,0.936l-0.056,0.921l-0.044,0.909l-0.027,0.88
									l-0.032,0.856l-0.014,0.797l0.018,0.761l0.007,0.355l0.019,0.333l0.007,0.32l0.03,0.311l0.032,0.291l0.028,0.255
									l0.046,0.273l0.044,0.238l0.062,0.194l0.046,0.193l0.074,0.148l0.079,0.155l0.087,0.103l0.078,0.076l0.086,0.058
									l0.113,0.029l0.3,0.018h0.277h0.243l0.225-0.051l0.194-0.067l0.155-0.074l0.146-0.096l0.111-0.128l0.106-0.135l0.076-0.153
									l0.059-0.148l0.031-0.178l0.025-0.174l0.012-0.176l-0.012-0.203l-0.013-0.205l-0.016-0.197l-0.032-0.216l-0.046-0.205
									l-0.051-0.203l-0.108-0.419l-0.123-0.394l-0.117-0.365l-0.107-0.326l-0.083-0.279l-0.047-0.227l0.163-0.123l0.158-0.152
									l0.132-0.153l0.123-0.158l0.116-0.139l0.102-0.143l0.105-0.165l0.09-0.159l0.063-0.147l0.073-0.158l0.068-0.162l0.065-0.156
									l0.092-0.309l0.076-0.323l0.067-0.311l0.054-0.324l0.031-0.289l0.05-0.303l0.051-0.298l0.037-0.277l0.065-0.289l0.085-0.243
									l0.32,0.083l0.297,0.135l0.281,0.213l0.265,0.237l0.261,0.271l0.223,0.315l0.202,0.367l0.19,0.384l0.176,0.44l0.149,0.437
									l0.124,0.483l0.1,0.507l0.064,0.52l0.066,0.555l0.015,0.55v0.578l-0.042,0.582l-0.051,0.585l-0.102,0.607l-0.125,0.604
									l-0.14,0.598l-0.185,0.603l-0.223,0.586l-0.235,0.592l-0.284,0.574l-0.303,0.571l-0.362,0.546l-0.392,0.537l-0.417,0.491
									l-0.468,0.491l-0.505,0.463l-0.544,0.424l-0.125,0.07l-0.127,0.085l-0.14,0.077l-0.166,0.084l-0.189,0.067l-0.189,0.065
									l-0.2,0.059l-0.209,0.059l-0.221,0.045l-0.232,0.048l-0.232,0.048l-0.259,0.036l-0.233,0.018h-0.262l-0.264,0.027
									l-0.263-0.025h-0.255l-0.274-0.016l-0.265-0.035l-0.275-0.048l-0.251-0.053l-0.265-0.073l-0.261-0.08l-0.249-0.101
									l-0.243-0.112l-0.247-0.135l-0.235-0.135l-0.22-0.167l-0.204-0.153l-0.201-0.215l-0.195-0.192l-0.176-0.239l-0.151-0.233
									l-0.159-0.23l-0.153-0.246l-0.142-0.255l-0.136-0.255l-0.125-0.271l-0.104-0.268l-0.114-0.272l-0.105-0.269l-0.094-0.284
									l-0.077-0.283l-0.078-0.293l-0.069-0.28l-0.07-0.306l-0.04-0.287l-0.041-0.305l-0.043-0.298l-0.024-0.3l-0.021-0.297
									l-0.002-0.312v-0.291l0.014-0.307l0.019-0.3l0.031-0.303l0.05-0.282l0.05-0.305l0.054-0.294l0.087-0.284l0.079-0.288
									l0.093-0.277l0.1-0.28l0.104-0.276l0.251,0.002h0.229l0.215-0.013l0.206-0.045l0.095-0.034l0.099-0.027l0.093-0.046
									l0.105-0.036l0.081-0.049l0.088-0.065l0.091-0.055l0.091-0.067l0.073-0.062l0.081-0.092l0.088-0.076l0.075-0.087
									l0.145-0.221l0.159-0.223l0.149-0.258l0.126-0.299l0.13-0.326l0.133-0.358l0.146-0.415l0.112-0.407l0.1-0.392l0.071-0.402
									l0.065-0.385l0.037-0.373l0.045-0.391l0.014-0.342l-0.001-0.364l-0.015-0.34l-0.044-0.331l-0.041-0.322l-0.056-0.312
									l-0.063-0.314l-0.076-0.282l-0.093-0.286l-0.095-0.257l-0.118-0.251l-0.127-0.256l-0.114-0.23l-0.135-0.21l-0.153-0.198
									l-0.16-0.193l-0.149-0.18l-0.161-0.152l-0.158-0.142l-0.179-0.124l-0.17-0.119l-0.187-0.09l-0.184-0.06l-0.179-0.074
									l-0.194-0.03l-0.017-0.144l-0.011-0.159l-0.007-0.192v-0.196l0.016-0.449l0.03-0.477l0.054-0.512l0.032-0.519l0.057-0.517
									l0.03-0.481l0.021-0.355l0.006-0.33l0.011-0.34l-0.011-0.337l-0.008-0.322l-0.022-0.308l-0.031-0.312l-0.021-0.304
									l-0.048-0.29l-0.044-0.273l-0.053-0.27l-0.043-0.267l-0.075-0.238l-0.056-0.239l-0.078-0.223l-0.08-0.193l-0.045-0.117
									l-0.064-0.109l-0.064-0.101l-0.064-0.091l-0.087-0.094l-0.083-0.072L165.48,8.27l-0.095-0.062L165.3,8.149l-0.105-0.028
									l-0.114-0.025l-0.102-0.028l-0.104-0.024l-0.114,0.021l-0.114,0.004l-0.102,0.027l-0.109,0.051l-0.105,0.052l-0.116,0.07
									l-0.109,0.071l-0.104,0.103L163.9,8.556l-0.106,0.136l-0.103,0.146l-0.085,0.152l-0.093,0.185l-0.091,0.19l-0.067,0.225
									l-0.067,0.234l-0.078,0.25l-0.057,0.274l-0.049,0.291l-0.105,0.697l-0.102,0.687l-0.072,0.676l-0.074,0.647l-0.039,0.635
									l-0.044,0.591l-0.039,0.596l-0.002,0.559l-0.005,0.538l0.007,0.505l0.005,0.473l0.027,0.472l0.039,0.423l0.043,0.394
									l0.05,0.36l0.057,0.348l0.054,0.052l0.046,0.045l0.053,0.035l0.054,0.018l0.063,0.006h0.051l0.059-0.023l0.084-0.052
									l0.082-0.046l0.094-0.065l0.109-0.093l0.113-0.111l0.283-0.268l0.336-0.369l0.104-0.102l0.109-0.091l0.125-0.074
									l0.138-0.062l0.128-0.069l0.134-0.037l0.132-0.02l0.147-0.008h0.139l0.165,0.006l0.138,0.025l0.155,0.052l0.15,0.054
									l0.155,0.072l0.145,0.089l0.148,0.117l0.148,0.128l0.145,0.123l0.128,0.156l0.139,0.171l0.131,0.19l0.117,0.194l0.116,0.231
									l0.104,0.241l0.104,0.256l0.089,0.271l0.088,0.292l0.077,0.309l0.074,0.341l0.058,0.333l0.043,0.381l0.023,0.377
									l0.013,0.222v0.288l-0.018,0.316l-0.036,0.375l-0.02,0.187l-0.033,0.2l-0.037,0.211l-0.041,0.197l-0.064,0.214l-0.05,0.203
									l-0.066,0.208l-0.077,0.199l-0.076,0.199l-0.109,0.189l-0.097,0.177l-0.11,0.183l-0.132,0.165l-0.14,0.162l-0.158,0.127
									l-0.15,0.127l-0.174,0.109l-0.215,0.095l-0.192,0.059l-0.214,0.057l-0.244,0.024l-0.242,0.011l-0.258-0.021l-0.292-0.045
									l-0.161-0.052l-0.149-0.054l-0.111-0.069l-0.107-0.095l-0.086-0.102l-0.068-0.126l-0.06-0.119l-0.042-0.16l-0.027-0.14
									l-0.012-0.163l-0.017-0.164l0.017-0.177l0.012-0.357l0.037-0.361l0.054-0.378l0.042-0.358l0.027-0.354l0.03-0.323
									l-0.002-0.159l-0.028-0.145l-0.017-0.146l-0.034-0.101l-0.044-0.102l-0.069-0.097l-0.074-0.086l-0.09-0.057l-0.093-0.041
									l-0.108-0.042l-0.106-0.018l-0.096-0.006h-0.095l-0.1,0.024l-0.106,0.025l-0.102,0.025l-0.099,0.053l-0.096,0.06
									l-0.082,0.08l-0.099,0.083l-0.104,0.08l-0.094,0.112l-0.097,0.118l-0.092,0.133l-0.098,0.132l-0.074,0.139l-0.095,0.146
									l-0.097,0.169l-0.16,0.355l-0.149,0.388l-0.146,0.42l-0.133,0.455l-0.126,0.482l-0.106,0.517l-0.096,0.512l-0.093,0.543
									l-0.12,0.578l-0.13,0.615l-0.085,0.324l-0.094,0.319l-0.107,0.323l-0.103,0.359l-0.126,0.324l-0.126,0.358l-0.151,0.345
									l-0.177,0.353l-0.208,0.429l-0.213,0.397l-0.218,0.393l-0.201,0.374l-0.21,0.366l-0.206,0.33l-0.213,0.328l-0.207,0.301
									l-0.212,0.312l-0.209,0.263l-0.223,0.285l-0.213,0.256l-0.227,0.231l-0.217,0.234l-0.227,0.201l-0.218,0.229l-0.219,0.183
									l-0.243,0.176l-0.228,0.172l-0.245,0.165l-0.236,0.14l-0.245,0.155l-0.255,0.108l-0.254,0.127l-0.258,0.132l-0.254,0.09
									l-0.268,0.114l-0.283,0.085l-0.275,0.09l-0.273,0.067l-0.288,0.071l-0.304,0.084l-0.63,0.117l-0.637,0.113l-0.626,0.085
									l-0.626,0.072l-0.616,0.065l-0.618,0.045l-0.61,0.038l-0.619,0.015l-0.589,0.011l-0.606-0.007l-0.601-0.039l-0.607-0.036
									l-0.589-0.034l-0.593-0.076l-0.594-0.057l-0.597-0.097l-0.585-0.079l-0.586-0.114l-0.582-0.098l-0.598-0.138l-0.589-0.13
									l-0.582-0.14l-0.588-0.16l-0.592-0.149l-0.577-0.167l-0.59-0.178l-0.584-0.176l-0.6-0.197l-1.187-0.393l-1.183-0.404
									l-0.569-0.198l-0.57-0.227l-0.56-0.213l-0.572-0.225l-1.13-0.469l-1.106-0.489l-1.151-0.472l-1.103-0.481l-1.126-0.476
									l-1.117-0.46l-0.565-0.216l-0.562-0.21l-0.558-0.207l-0.559-0.173l-0.568-0.195l-0.576-0.167l-0.571-0.164l-0.57-0.146
									l-0.568-0.125l-0.577-0.128l-0.582-0.096l-0.575-0.091l-0.595-0.064l-0.585-0.05l-0.585-0.018l-0.611-0.013l-1.043,0.016
									l-1.052,0.022l-1.061,0.039l-1.075,0.074l-1.055,0.094l-1.068,0.093l-1.067,0.119l-1.076,0.113l-1.076,0.141l-1.068,0.162
									l-1.064,0.139l-1.082,0.181l-1.067,0.182l-1.056,0.179l-1.062,0.195l-1.061,0.192l-2.116,0.398l-2.096,0.428l-2.049,0.41
									l-2.041,0.411l-2.001,0.384l-1.966,0.378l-0.968,0.166l-0.964,0.174L82.645,34.8l-0.942,0.138l-1.161,0.185l-1.163,0.179
									l-1.183,0.189l-1.208,0.203l-1.221,0.195l-1.239,0.189l-1.237,0.188l-1.239,0.173l-1.26,0.173l-1.246,0.151l-1.264,0.147
									l-1.244,0.117l-0.63,0.055l-0.613,0.046l-0.634,0.053l-0.619,0.011l-0.608,0.038l-0.621,0.034l-0.602,0.011l-0.613,0.001
									h-1.107l-1.08-0.005l-1.088-0.012l-1.077-0.022l-1.059-0.038l-1.071-0.021l-1.06-0.038l-1.038-0.054l-1.055-0.043
									l-1.059-0.063l-1.062-0.05l-1.067-0.088l-1.073-0.087l-1.073-0.091l-1.08-0.098l-1.112-0.108l-1.452-0.16l-1.397-0.182
									l-1.359-0.194l-1.308-0.221l-1.242-0.237l-1.194-0.237l-1.149-0.264l-1.097-0.275l-1.045-0.289l-1.001-0.31l-0.97-0.315
									l-0.914-0.314l-0.854-0.334l-0.827-0.332l-0.768-0.36l-0.738-0.351l-0.695-0.366l-0.657-0.364l-0.61-0.38L25.086,30.6
									l-0.54-0.383l-0.483-0.375l-0.474-0.368l-0.43-0.397l-0.368-0.37l-0.366-0.379l-0.316-0.369l-0.287-0.376l-0.251-0.375
									l-0.237-0.343l-0.186-0.36l-0.172-0.347l6.197,2.282l0.233,0.083l0.267,0.081l0.312,0.095l0.339,0.079l0.767,0.208
									l0.892,0.178l0.996,0.2l1.108,0.201l1.213,0.211l1.302,0.209l1.381,0.19l1.459,0.196l1.538,0.19l1.596,0.173l1.649,0.169
									l1.694,0.155l1.75,0.125l1.786,0.111l1.657,0.091l1.609,0.063l1.604,0.059l1.575,0.022l1.521,0.029l1.488-0.004l1.443-0.029
									l1.379-0.034l1.343-0.043l1.273-0.054l1.227-0.068l1.14-0.084l1.083-0.104l1.013-0.106l0.923-0.11l0.849-0.125l2.022-0.33
									l2.04-0.338l2.061-0.342l2.078-0.381l2.078-0.347l2.086-0.394l2.1-0.36l2.085-0.369l2.063-0.385l2.066-0.363l2.049-0.354
									l2.027-0.339l1.997-0.326l1.972-0.317l1.918-0.286l1.896-0.275l1.048-0.136l1.073-0.128l1.056-0.11l1.054-0.111l1.069-0.078
									l1.067-0.084l1.073-0.067l1.065-0.056l1.061-0.021l1.095-0.007l1.081-0.003l1.075,0.018l1.071,0.029l1.098,0.058l1.08,0.074
									l1.087,0.094l0.661,0.075l0.666,0.092l0.681,0.11l0.692,0.127l0.712,0.117l0.712,0.163l0.706,0.155l0.742,0.169l0.719,0.189
									l0.736,0.194l0.751,0.192l0.728,0.207l1.47,0.435l1.46,0.433l1.437,0.447l1.416,0.44l1.354,0.429l1.311,0.404l1.238,0.375
									l1.158,0.328l0.559,0.152l0.524,0.136l0.518,0.142l0.473,0.089l0.509,0.115l0.544,0.103l0.575,0.09l0.617,0.096l0.627,0.096
									l0.637,0.074l0.666,0.076l0.685,0.053l0.676,0.042l0.685,0.02h0.669l0.679-0.016l0.34-0.011l0.315-0.031l0.337-0.032
									l0.324-0.035l0.312-0.054l0.314-0.033l0.308-0.064l0.298-0.07l0.402-0.09l0.363-0.115l0.354-0.108l0.346-0.139l0.326-0.14
									l0.331-0.157l0.296-0.163l0.318-0.176l0.279-0.187l0.282-0.197l0.268-0.2l0.25-0.205l0.25-0.228l0.235-0.238l0.228-0.262
									l0.208-0.242l0.215-0.265l0.207-0.271l0.194-0.297l0.181-0.287l0.191-0.304l0.165-0.306l0.185-0.327l0.17-0.333l0.152-0.348
									l0.152-0.343l0.145-0.364l0.134-0.37l0.148-0.385l0.148-0.373l0.138-0.41l0.127-0.387l0.211-0.711l0.198-0.703l0.179-0.729
									l0.149-0.706l0.148-0.733l0.113-0.75l0.109-0.735l0.088-0.737l0.082-0.769l0.071-0.749l0.041-0.756l0.034-0.754l0.025-0.769
									l-0.001-0.762l-0.002-0.768l-0.021-0.755l-0.017-0.756l-0.03-0.763l-0.041-0.761l-0.064-0.759l-0.061-0.751l-0.073-0.746
									l-0.075-0.751l-0.092-0.749l-0.09-0.714l-0.101-0.735l-0.09-0.711l-0.11-0.708l-0.224-1.396L157.326-0.988z M146.157-5.974
									l0.77,0.293l0.717,0.344l0.643,0.362l0.602,0.402l0.534,0.434l0.474,0.462l0.448,0.504l0.387,0.532l0.346,0.562l0.289,0.575
									l0.241,0.613l0.217,0.637l0.166,0.657l0.135,0.665l0.095,0.687l0.053,0.715l0.025,0.733v0.75l-0.037,0.753l-0.055,0.775
									l-0.083,0.781l-0.108,0.791l-0.129,0.802l-0.159,0.819l-0.169,0.802l-0.186,0.822l-0.194,0.825l-0.212,0.825l-0.213,0.833
									l-0.239,0.82l-0.244,0.821l-0.245,0.833l-0.122,0.419l-0.132,0.438l-0.117,0.471l-0.116,0.476l-0.115,0.496l-0.107,0.488
									l-0.092,0.483l-0.082,0.471l-0.055,0.452l-0.037,0.427l-0.012,0.209v0.194v0.17v0.175l0.022,0.167l0.022,0.142l0.037,0.139
									l0.025,0.119l0.06,0.109l0.058,0.089l0.064,0.066l0.071,0.065l0.225,0.123l0.253,0.101l0.134,0.044l0.135,0.054l0.133,0.022
									l0.143,0.038l0.146,0.004l0.14,0.009l0.151,0.022l0.155-0.022l0.14-0.016l0.161-0.038l0.137-0.046l0.162-0.058l0.125-0.074
									l0.14-0.077l0.111-0.096l0.119-0.129l0.102-0.119l0.123-0.149l0.103-0.14l0.091-0.172l0.079-0.166l0.084-0.195l0.067-0.183
									l0.089-0.19l0.058-0.2l0.059-0.216l0.056-0.211l0.046-0.231l0.08-0.443l0.061-0.456l0.045-0.468l0.016-0.452v-0.434
									l-0.007-0.434l-0.036-0.395l-0.048-0.383l0.278,0.137l0.244,0.183l0.232,0.194l0.232,0.231l0.199,0.255l0.19,0.268
									l0.158,0.295l0.146,0.326l0.134,0.327l0.099,0.346l0.09,0.367l0.075,0.381l0.04,0.383l0.039,0.393l0.02,0.396l-0.02,0.415
									l-0.036,0.416l-0.048,0.411l-0.063,0.408l-0.088,0.414l-0.11,0.396l-0.133,0.406l-0.158,0.388l-0.166,0.394l-0.199,0.368
									l-0.209,0.355l-0.256,0.34l-0.246,0.322l-0.274,0.325l-0.305,0.273l-0.328,0.266l-0.335,0.236l-0.238,0.134l-0.236,0.109
									l-0.252,0.099l-0.269,0.096l-0.278,0.077l-0.293,0.059l-0.305,0.05l-0.302,0.031l-0.319,0.016h-0.315l-0.321-0.014
									l-0.312-0.028l-0.312-0.049l-0.307-0.055l-0.304-0.061l-0.293-0.114l-0.395-0.154l-0.407-0.177l-0.412-0.192l-0.396-0.203
									l-0.823-0.416l-0.799-0.417l-0.404-0.202l-0.405-0.172l-0.415-0.166l-0.389-0.162l-0.223-0.051l-0.197-0.068l-0.204-0.045
									l-0.194-0.048l-0.206-0.034l-0.223-0.032l-0.203-0.003l-0.196-0.016l0.124-0.194l0.12-0.218l0.119-0.257l0.094-0.236
									l0.104-0.268l0.093-0.307l0.074-0.275l0.096-0.309l0.143-0.66l0.161-0.694l0.17-0.745l0.183-0.761l0.157-0.562l0.161-0.583
									l0.17-0.591l0.183-0.606l0.191-0.622l0.219-0.625l0.205-0.64l0.215-0.638l0.222-0.645l0.211-0.672l0.221-0.652l0.231-0.69
									l0.21-0.676l0.211-0.675l0.19-0.691l0.181-0.686l0.129-0.465l0.116-0.453l0.089-0.469l0.101-0.458l0.1-0.455l0.102-0.449
									l0.069-0.473l0.079-0.457l0.065-0.464l0.062-0.454l0.042-0.474l0.053-0.448l0.019-0.474l0.038-0.472l0.025-0.46l0.016-0.457
									l-0.002-0.463V0.657l-0.001-0.464l-0.013-0.476l-0.015-0.464l-0.035-0.481l-0.042-0.464l-0.054-0.48l-0.048-0.464
									l-0.061-0.48l-0.069-0.471l-0.087-0.469l-0.09-0.483l-0.094-0.479l-0.105-0.479L146.157-5.974z M133.572-9.898l0.791,0.465
									l0.711,0.484l0.632,0.514l0.579,0.542l0.47,0.56l0.421,0.591l0.371,0.618l0.3,0.632l0.243,0.642l0.172,0.68l0.138,0.699
									l0.089,0.716l0.063,0.731l0.004,0.753l-0.034,0.75l-0.071,0.785l-0.092,0.786l-0.129,0.805l-0.143,0.824l-0.169,0.824
									l-0.184,0.835l-0.186,0.838l-0.216,0.851l-0.226,0.859l-0.424,1.74l-0.424,1.747l-0.197,0.874l-0.188,0.884l-0.159,0.869
									l-0.158,0.878l-0.027,0.182l-0.054,0.211l-0.037,0.199l-0.046,0.208l-0.148,0.426l-0.118,0.423l-0.123,0.423l-0.109,0.414
									l-0.053,0.199l-0.025,0.19l-0.021,0.178l-0.022,0.179v0.153l0.017,0.155l0.029,0.126l0.043,0.136l0.069,0.11l0.081,0.089
									l0.109,0.097l0.129,0.048l0.159,0.044l0.186,0.032h0.213l0.229-0.013l0.268-0.056l0.275-0.058l0.336-0.107l0.375-0.098
									l0.065-0.05l0.071-0.051l0.066-0.072l0.066-0.085l0.053-0.087l0.069-0.131l0.061-0.11l0.059-0.135l0.106-0.322l0.115-0.337
									l0.104-0.377l0.096-0.392l0.08-0.421l0.085-0.407l0.061-0.41l0.063-0.398l0.055-0.376l0.022-0.357l0.046-0.327l0.014-0.278
									l0.216,0.141l0.204,0.189l0.201,0.224l0.176,0.262l0.148,0.301l0.146,0.312l0.128,0.36l0.111,0.38l0.091,0.396l0.092,0.416
									l0.054,0.43l0.045,0.448l0.036,0.449l0.008,0.468v0.47l-0.014,0.46l-0.054,0.458l-0.049,0.474l-0.07,0.443l-0.088,0.447
									l-0.096,0.414l-0.122,0.42l-0.147,0.392l-0.143,0.364l-0.176,0.354l-0.183,0.298l-0.218,0.291l-0.22,0.256l-0.247,0.211
									l-0.263,0.167l-0.264,0.129l-0.312,0.077l-0.071,0.018l-0.092,0.013l-0.082-0.013l-0.1-0.016l-0.174-0.032l-0.198-0.072
									l-0.176-0.082l-0.194-0.105l-0.208-0.116l-0.205-0.132l-0.433-0.284l-0.473-0.286l-0.257-0.137l-0.25-0.138l-0.271-0.123
									l-0.293-0.109l-0.379-0.131l-0.398-0.114l-0.351-0.091l-0.359-0.064l-0.343-0.061l-0.337-0.025l-0.336-0.022l-0.323-0.003
									l-0.658-0.019l-0.655-0.009h-0.332l-0.357-0.01l-0.36-0.015l-0.364-0.047l-0.077-0.012l-0.051-0.034l-0.072-0.071
									l-0.057-0.081l-0.046-0.091l-0.039-0.118l-0.025-0.136l-0.024-0.164l-0.031-0.161l-0.012-0.172l-0.015-0.193l-0.001-0.208
									l0.004-0.432l0.025-0.467l0.034-0.496l0.053-0.502l0.065-0.519l0.076-0.511l0.09-0.5l0.097-0.48l0.112-0.45l0.093-0.404
									l0.173-0.588l0.17-0.597l0.21-0.623l0.184-0.645l0.218-0.674l0.203-0.669l0.22-0.703l0.221-0.706l0.216-0.723l0.235-0.717
									l0.222-0.724l0.229-0.724l0.218-0.719l0.218-0.722l0.207-0.698l0.214-0.711l0.136-0.467l0.124-0.466l0.095-0.468
									l0.097-0.433l0.093-0.45l0.082-0.442l0.066-0.456l0.062-0.415l0.055-0.439l0.052-0.421l0.049-0.435l0.027-0.42l0.06-0.839
									l0.039-0.841l0.037-0.845l0.034-0.838l0.018-0.845l0.03-0.871l0.044-0.878l0.045-0.909l0.077-0.937L133.572-9.898z
									 M113.841-13.017l0.291,0.387l0.339,0.321l0.354,0.282l0.395,0.237l0.432,0.185l0.448,0.156l0.461,0.125l0.499,0.087
									l0.521,0.055l0.525,0.044l0.528,0.003l0.559-0.006l0.544-0.027l0.574-0.048l0.571-0.047l0.569-0.061l1.141-0.103
									l1.093-0.098l0.544-0.018l0.505-0.029h0.504l0.481,0.024l0.479,0.037l0.429,0.075l0.412,0.099l0.371,0.152l0.353,0.165
									l0.318,0.218l0.281,0.263l0.229,0.298l0.142,0.215l0.116,0.214l0.117,0.22l0.115,0.217l0.089,0.236l0.098,0.234l0.074,0.236
									l0.085,0.231l0.063,0.238l0.054,0.247l0.05,0.242l0.045,0.256l0.03,0.244l0.027,0.247l0.003,0.245v0.261v0.247l-0.018,0.248
									l-0.017,0.256l-0.037,0.242l-0.038,0.247l-0.051,0.238l-0.068,0.23l-0.08,0.242l-0.088,0.236l-0.104,0.221l-0.091,0.214
									l-0.108,0.231l-0.143,0.211l-0.132,0.209l-0.149,0.206l-0.144,0.195l-0.201,0.214l-0.219,0.19l-0.205,0.184l-0.234,0.179
									l-0.229,0.173L127.108-1.7l-0.256,0.133l-0.241,0.127l-0.255,0.113l-0.242,0.102l-0.265,0.068l-0.237,0.072l-0.24,0.056
									l-0.247,0.023l-0.227,0.018l-0.213,0.001l0.131-0.182l0.135-0.218l0.139-0.234l0.142-0.215l0.137-0.247l0.128-0.254
									l0.125-0.257l0.113-0.25L125.804-3l0.059-0.155l0.039-0.166l0.046-0.152l0.039-0.165l0.023-0.153l0.016-0.168l0.022-0.155
									v-0.177V-4.45l-0.021-0.169l-0.019-0.155l-0.021-0.15l-0.03-0.163l-0.026-0.153l-0.063-0.146l-0.043-0.138l-0.072-0.146
									l-0.064-0.143l-0.071-0.143l-0.1-0.115l-0.086-0.125l-0.108-0.125l-0.097-0.109l-0.12-0.093l-0.125-0.107l-0.117-0.081
									l-0.141-0.07l-0.147-0.086l-0.156-0.07l-0.156-0.045L124.1-7.035l-0.306-0.073l-0.299-0.039l-0.267-0.058L122.98-7.24
									l-0.254-0.004l-0.223-0.008h-0.218h-0.188l-0.368,0.031l-0.304,0.026l-0.276,0.069l-0.246,0.039l-0.018,0.207l-0.014,0.248
									v0.262v0.309l0.001,0.315v0.323l0.002,0.342l-0.014,0.344l-0.051,0.738l-0.064,0.747l-0.037,0.37l-0.059,0.375l-0.059,0.389
									l-0.068,0.376l-0.064,0.391l-0.084,0.37l-0.087,0.383l-0.116,0.378l-0.113,0.382l-0.13,0.372l-0.151,0.381l-0.169,0.383
									l0.286-0.001l0.264-0.014l0.277,0.014l0.292-0.001l0.295,0.009h0.3l0.316,0.009h0.321l0.223,0.01l0.227,0.006l0.213,0.033
									l0.201,0.041l0.197,0.038l0.199,0.05l0.199,0.053l0.19,0.054l0.72,0.25l0.714,0.235l0.186,0.057l0.169,0.021l0.173,0.046
									l0.194,0.021l0.177,0.024l0.179-0.002l0.181-0.023l0.19-0.003l0.19-0.039l0.186-0.055l0.2-0.065l0.206-0.097l0.217-0.1
									l0.212-0.132l0.213-0.146l0.232-0.158h0.011l0.019,0.033l0.007,0.069l0.012,0.095l0.01,0.267l-0.01,0.33l-0.012,0.204
									l-0.005,0.208l-0.038,0.223l-0.034,0.232l-0.04,0.245l-0.063,0.246l-0.057,0.243l-0.083,0.261l-0.096,0.25l-0.097,0.264
									l-0.128,0.248l-0.146,0.247l-0.152,0.231l-0.17,0.233l-0.197,0.212l-0.216,0.2l-0.229,0.181l-0.274,0.165l-0.272,0.152
									l-0.315,0.119l-0.314,0.102l-0.379,0.084l-0.369,0.034l-0.42,0.016h-0.327l-0.329-0.021l-0.303-0.022l-0.318-0.028
									l-0.587-0.076l-0.551-0.093l-0.538-0.072l-0.48-0.052l-0.237-0.026h-0.226l-0.205,0.001l-0.216,0.026l-0.198,0.047
									l-0.185,0.051l-0.173,0.065l-0.174,0.106l-0.157,0.104l-0.158,0.158l-0.137,0.164l-0.138,0.203L118.32,7.59l-0.112,0.261
									l-0.109,0.292L118,8.466l-0.089,0.368l-0.073,0.414l-0.085,0.451l-0.046,0.496l-0.02,0.219l-0.009,0.233l-0.013,0.237
									l0.002,0.22l0.011,0.25l0.011,0.235l0.035,0.242l0.033,0.232l0.037,0.235l0.05,0.242l0.061,0.208l0.067,0.221l0.086,0.21
									l0.075,0.202l0.099,0.179l0.099,0.167l0.113,0.175l0.122,0.149l0.133,0.13l0.131,0.111l0.153,0.089l0.155,0.069l0.184,0.06
									l0.182,0.035h0.197l0.204-0.021l0.205-0.035l0.237-0.066l0.24-0.102l0.253-0.121l0.251-0.175l0.278-0.188l0.09-0.072
									l0.075-0.076l0.068-0.087l0.044-0.101l0.042-0.081l0.024-0.107l0.021-0.097l0.013-0.106v-0.104l-0.013-0.111l-0.013-0.11
									l-0.024-0.119l-0.039-0.249l-0.058-0.257l-0.06-0.287l-0.058-0.276l-0.014-0.159l-0.034-0.15l-0.016-0.155v-0.152
									l-0.001-0.156l0.017-0.174l0.032-0.161l0.013-0.163l0.048-0.188l0.049-0.172l0.062-0.183l0.09-0.171l0.019-0.062l0.03-0.042
									l0.042-0.038l0.037-0.044l0.117-0.086l0.113-0.04l0.144-0.052l0.167-0.03l0.163-0.011h0.189l0.202,0.01l0.215,0.018
									l0.209,0.037l0.239,0.05l0.23,0.082l0.247,0.08l0.25,0.097l0.239,0.126l0.195,0.095l0.172,0.102l0.163,0.106l0.155,0.115
									l0.151,0.109l0.134,0.119l0.126,0.129l0.125,0.123l0.101,0.133L126,10.873l0.094,0.135l0.076,0.136l0.082,0.149l0.048,0.136
									l0.06,0.167l0.054,0.147l0.034,0.16l0.039,0.166l0.02,0.168l0.018,0.17l0.002,0.165l0.013,0.179l-0.013,0.178l-0.007,0.17
									l-0.011,0.194l-0.018,0.197l-0.036,0.188l-0.036,0.189l-0.088,0.387l-0.108,0.411l-0.096,0.333l-0.078,0.366l-0.071,0.376
									l-0.087,0.382l-0.062,0.369l-0.049,0.367l-0.063,0.331l-0.023,0.309l-0.041,0.295l-0.046,0.243l-0.053,0.246l-0.059,0.231
									l-0.063,0.215l-0.069,0.201l-0.066,0.17l-0.074,0.17l-0.064,0.169l-0.084,0.12l-0.061,0.123l-0.07,0.119l-0.064,0.092
									l-0.077,0.07l-0.051,0.06l-0.038,0.048l-0.145,0.097l-0.162,0.082l-0.164,0.085l-0.184,0.051l-0.168,0.043l-0.195,0.042
									l-0.201,0.02l-0.199,0.006l-0.211-0.006l-0.213-0.01l-0.209-0.008l-0.215-0.041l-0.446-0.063l-0.441-0.084l-0.427-0.121
									l-0.42-0.124l-0.391-0.119l-0.345-0.11l-0.323-0.115l-0.285-0.078l-0.219-0.064l-0.175-0.036l-0.38-0.025l-0.351-0.008
									l-0.336-0.016l-0.334,0.017l-0.327,0.01l-0.299,0.024l-0.317,0.021l-0.281,0.035l-0.304,0.047l-0.291,0.036l-0.272,0.061
									l-0.293,0.054l-0.582,0.141L114,20.053l-0.234,0.044l-0.218,0.014l-0.215-0.011l-0.172-0.031l-0.183-0.066l-0.158-0.107
									l-0.124-0.106l-0.131-0.146l-0.114-0.161l-0.09-0.187l-0.085-0.217l-0.053-0.242l-0.06-0.257l-0.041-0.28l-0.019-0.295
									l-0.013-0.326v-0.337l0.012-0.352l0.038-0.379l0.033-0.395l0.052-0.405l0.051-0.419l0.076-0.456l0.079-0.451l0.101-0.482
									l0.096-0.465l0.11-0.504l0.123-0.503l0.282-1.072l0.296-1.079l0.204-0.745l0.189-0.741l0.165-0.74l0.16-0.733l0.128-0.729
									l0.11-0.748l0.112-0.715l0.087-0.713l0.076-0.738l0.053-0.725l0.041-0.701l0.05-0.725l0.018-0.723l0.006-0.715l-0.003-0.718
									l-0.01-0.731l-0.007-0.711l-0.026-0.723l-0.038-0.724l-0.043-0.71l-0.103-1.455l-0.124-1.459l-0.147-1.478l-0.162-1.478
									l-0.181-1.503L113.841-13.017z M92.673-16.814l0.026,0.455l0.034,0.412l0.066,0.365l0.084,0.335l0.1,0.304l0.128,0.271
									l0.128,0.247l0.161,0.207l0.167,0.17l0.207,0.162l0.213,0.133l0.23,0.111l0.258,0.075l0.265,0.075l0.291,0.049l0.3,0.038
									l0.317,0.023l0.345,0.003l0.354-0.002l0.38-0.012l0.784-0.056l0.853-0.06l0.928-0.081l0.986-0.062l0.509-0.041l0.529-0.031
									l0.544-0.003l0.564-0.017l0.565,0.013l0.566,0.006l0.276,0.033l0.274,0.03l0.286,0.035l0.286,0.039l0.27,0.043l0.266,0.049
									l0.266,0.057l0.268,0.071l0.275,0.07l0.25,0.083l0.263,0.087l0.236,0.106l0.245,0.104l0.252,0.113l0.244,0.138l0.228,0.125
									l0.235,0.141l0.216,0.172l0.21,0.164l0.219,0.178l0.206,0.197l0.194,0.199l0.199,0.203l0.19,0.246l0.174,0.223l0.168,0.25
									l0.161,0.276l0.157,0.279l0.189,0.346l0.161,0.351l0.161,0.34l0.122,0.337l0.119,0.335l0.092,0.322l0.088,0.316l0.072,0.3
									l0.058,0.293l0.048,0.29l0.02,0.298l0.02,0.268l0.02,0.286v0.27l-0.019,0.257l-0.019,0.247l-0.02,0.242l-0.038,0.235
									l-0.037,0.25l-0.049,0.218l-0.106,0.46l-0.129,0.406l-0.118,0.409l-0.136,0.384l-0.128,0.354l-0.11,0.35l-0.087,0.242
									l-0.111,0.26l-0.115,0.229l-0.108,0.233l-0.123,0.243l-0.138,0.225l-0.148,0.208l-0.124,0.196l-0.147,0.204l-0.153,0.192
									l-0.154,0.183l-0.159,0.195l-0.316,0.354l-0.315,0.33l-0.616,0.619l-0.575,0.599l-0.256,0.285l-0.216,0.29l-0.107,0.145
									l-0.087,0.146l-0.08,0.145l-0.064,0.149l0.247,0.037l0.236,0.093l0.209,0.125l0.198,0.155l0.159,0.185l0.143,0.217
									l0.137,0.266l0.126,0.279l0.093,0.313l0.087,0.333l0.078,0.358l0.062,0.381l0.042,0.39l0.049,0.411l0.022,0.426l0.032,0.427
									v0.447v0.447v0.463l0.002,0.457l-0.01,0.926l-0.036,0.898l-0.032,0.886l-0.02,0.817l-0.013,0.774l0.015,0.672l0.009,0.347
									l0.048,0.364l0.053,0.35l0.06,0.34l0.05,0.179l0.055,0.158l0.063,0.18l0.051,0.168l0.062,0.169l0.074,0.152l0.083,0.17
									l0.095,0.161l0.099,0.157l0.09,0.161l0.124,0.153l0.115,0.161l0.14,0.139l0.146,0.152l0.139,0.15l0.165,0.145l0.17,0.127
									l0.179,0.146l0.188,0.143l0.218,0.133l0.211,0.111l0.22,0.126l0.248,0.123l0.24,0.118l-0.859,0.259l-0.812,0.208
									l-0.745,0.129l-0.708,0.074l-0.655,0.01l-0.621-0.039l-0.572-0.096l-0.536-0.127l-0.478-0.185l-0.455-0.22l-0.402-0.287
									l-0.379-0.308l-0.341-0.348l-0.308-0.382l-0.281-0.419l-0.245-0.425l-0.208-0.47l-0.197-0.493l-0.149-0.495l-0.152-0.525
									l-0.098-0.537l-0.111-0.541l-0.076-0.554l-0.066-0.558l-0.03-0.57l-0.026-0.56l-0.012-0.554l-0.003-0.56l-0.001-0.539
									l0.016-0.53l0.021-0.524l0.027-0.512l0.021-0.287V8.741v-0.27L101.9,8.21l-0.027-0.239l-0.021-0.241l-0.029-0.219
									l-0.041-0.208l-0.049-0.185l-0.041-0.193l-0.055-0.179l-0.071-0.163l-0.063-0.139l-0.065-0.136l-0.082-0.149l-0.065-0.131
									l-0.083-0.11l-0.089-0.118l-0.095-0.1l-0.093-0.086l-0.104-0.081l-0.104-0.082l-0.096-0.061l-0.1-0.058l-0.105-0.046
									l-0.103-0.055l-0.11-0.04l-0.124-0.026L99.87,5.112l-0.229-0.048l-0.064,0.144l-0.061,0.189l-0.062,0.207L99.4,5.829
									l-0.05,0.268L99.292,6.38l-0.056,0.3L99.19,7.005l-0.101,0.71l-0.096,0.761l-0.088,0.817l-0.084,0.836l-0.083,0.837
									l-0.094,0.847l-0.085,0.84l-0.1,0.796l-0.106,0.767l-0.105,0.686l-0.046,0.33l-0.073,0.282l-0.058,0.284l-0.066,0.25
									l-0.116,0.386l-0.136,0.417l-0.14,0.411l-0.163,0.428l-0.16,0.419l-0.199,0.415l-0.195,0.419l-0.219,0.422l-0.229,0.392
									l-0.247,0.392l-0.265,0.383l-0.28,0.355l-0.143,0.179l-0.145,0.157L95.22,21.4l-0.151,0.154l-0.157,0.142l-0.16,0.157
									l-0.169,0.14l-0.168,0.116l-0.4,0.278l-0.403,0.251l-0.398,0.21l-0.417,0.176l-0.397,0.163l-0.421,0.124l-0.403,0.083
									l-0.398,0.058l-0.42,0.031l-0.405,0.013l-0.395-0.016l-0.395-0.055l-0.378-0.074l-0.373-0.103l-0.367-0.14l-0.36-0.145
									l-0.332-0.178l-0.331-0.222l-0.315-0.233l-0.297-0.242l-0.281-0.284l-0.267-0.3l-0.24-0.319l-0.236-0.343l-0.193-0.374
									l-0.18-0.393l-0.156-0.418l-0.131-0.427l-0.093-0.454l-0.083-0.474l-0.043-0.479l-0.017-0.514v-0.02h0.015h0.01h0.02
									l0.055,0.027l0.094,0.05l0.106,0.046l0.138,0.072l0.178,0.084l0.189,0.069l0.246,0.069l0.263,0.059l0.155,0.013l0.162,0.02
									l0.17,0.022h0.17l0.191-0.001h0.194l0.206-0.023l0.213-0.018l0.235-0.035l0.22-0.041l0.26-0.062l0.265-0.053l0.563-0.181
									l0.526-0.21l0.479-0.264l0.454-0.292l0.421-0.353l0.395-0.362l0.339-0.395l0.318-0.427l0.301-0.462l0.268-0.497l0.238-0.498
									l0.223-0.522l0.185-0.533l0.159-0.562l0.154-0.565l0.143-0.568l0.11-0.6l0.102-0.584l0.097-0.61l0.059-0.591l0.064-0.587
									l0.06-0.598l0.041-0.579L94.38,6.18l0.06-1.117l0.071-1.041l0.032-0.491l0.029-0.478l0.048-0.437l0.036-0.427l0.103-0.696
									l0.147-0.672l0.168-0.625l0.222-0.589l0.243-0.558l0.249-0.529l0.294-0.468l0.296-0.455l0.333-0.416l0.341-0.387
									l0.347-0.367l0.369-0.317l0.364-0.297l0.372-0.268l0.374-0.243l0.363-0.208l0.379-0.184l0.361-0.165l0.342-0.146
									l0.336-0.117l0.31-0.084l0.326-0.077l0.276-0.048l0.252-0.034l0.236-0.001h0.213l0.168,0.015l0.126,0.039l0.113,0.056
									l0.045,0.073l0.015,0.082l-0.015,0.09l-0.364,0.701l-0.341,0.682l-0.34,0.682l-0.3,0.648l-0.278,0.635l-0.269,0.614
									l-0.24,0.574l-0.186,0.534l-0.178,0.513l-0.154,0.457l-0.054,0.207L99.983,1.05l-0.044,0.169l-0.021,0.177l-0.032,0.165
									v0.146v0.132l0.032,0.11l0.021,0.089l0.03,0.083l0.054,0.056l0.067,0.05l0.15,0.055l0.156,0.018h0.174l0.188-0.041
									l0.2-0.065l0.231-0.098l0.212-0.104l0.238-0.135l0.225-0.175l0.248-0.175l0.252-0.204l0.245-0.216l0.251-0.234l0.248-0.266
									l0.245-0.259l0.228-0.281l0.235-0.312l0.228-0.314l0.203-0.321l0.199-0.339l0.19-0.349l0.178-0.353l0.16-0.353l0.131-0.37
									l0.124-0.383l0.091-0.374l0.076-0.379l0.054-0.376l0.033-0.383l-0.004-0.389l-0.044-0.379l-0.047-0.371l-0.108-0.36
									l-0.158-0.292l-0.195-0.273l-0.237-0.24l-0.286-0.186l-0.327-0.142l-0.35-0.121l-0.391-0.11l-0.427-0.051l-0.446-0.054
									l-0.47-0.017l-0.487,0.001l-0.495,0.018l-0.52,0.02l-0.541,0.041l-0.546,0.037l-1.095,0.12l-1.074,0.111l-0.556,0.049
									l-0.531,0.03l-0.519,0.035l-0.514,0.016l-0.477,0.003l-0.463-0.018l-0.442-0.056l-0.425-0.073L92.938-7.3l-0.365-0.122
									l-0.317-0.173l-0.291-0.175l-0.211-0.198l-0.2-0.198l-0.181-0.222L91.19-8.62l-0.156-0.262l-0.15-0.25L90.755-9.4
									l-0.112-0.292l-0.086-0.284l-0.09-0.302L90.4-10.575l-0.063-0.315l-0.025-0.314l-0.032-0.328v-0.319l0.019-0.316
									l0.014-0.328l0.052-0.339l0.045-0.315l0.086-0.328l0.087-0.311l0.117-0.317l0.115-0.294l0.135-0.316l0.16-0.288l0.172-0.3
									l0.192-0.276l0.207-0.257l0.219-0.267l0.247-0.247l0.259-0.226L92.673-16.814z M76.265-12.95l0.401,0.25l0.404,0.219
									l0.411,0.199l0.409,0.143l0.412,0.121l0.435,0.103l0.411,0.072l0.422,0.058l0.429,0.027l0.425,0.018l0.418,0.011
									l0.421,0.013l0.842-0.003l0.844,0.008l0.411,0.026l0.41,0.026l0.42,0.034l0.392,0.07l0.412,0.093l0.397,0.106l0.401,0.146
									l0.371,0.174l0.396,0.212l0.362,0.241l0.381,0.299l0.364,0.324l0.35,0.39l0.339,0.433l0.354,0.497l0.329,0.531l0.236,0.429
									l0.221,0.447l0.209,0.53l0.218,0.527l0.207,0.586l0.219,0.618l0.183,0.652l0.188,0.68l0.179,0.702l0.174,0.708l0.163,0.767
									l0.138,0.753l0.13,0.789l0.108,0.793l0.103,0.802l0.078,0.799l0.054,0.814l0.039,0.825l0.022,0.815l-0.011,0.803
									l-0.033,0.788l-0.05,0.798l-0.074,0.774l-0.111,0.762L91.493,9.6l-0.164,0.719l-0.197,0.705L90.9,11.692l-0.268,0.645
									l-0.287,0.612l-0.334,0.571l-0.382,0.532l-0.121,0.17l-0.13,0.147l-0.147,0.129l-0.148,0.118l-0.146,0.111l-0.176,0.103
									l-0.146,0.095l-0.179,0.076l-0.167,0.076l-0.177,0.058l-0.187,0.043l-0.182,0.05l-0.188,0.021l-0.183,0.023l-0.186,0.008
									l-0.178,0.005l-0.196-0.005l-0.182-0.006l-0.189-0.021l-0.192-0.037l-0.199-0.033l-0.166-0.042l-0.181-0.038l-0.172-0.062
									l-0.179-0.071l-0.163-0.063l-0.177-0.071l-0.168-0.075l-0.154-0.079l-0.143-0.101L84.386,14.5l-0.144-0.106l-0.134-0.1
									l-0.135-0.106l-0.141-0.127l-0.116-0.103l-0.111-0.123l-0.108-0.132l-0.121-0.123l-0.088-0.125l-0.101-0.137l-0.09-0.132
									l-0.074-0.132l-0.068-0.13l-0.079-0.161l-0.053-0.121L82.761,12.5l-0.049-0.146l-0.047-0.134l-0.033-0.144l-0.037-0.14
									l-0.03-0.15l-0.011-0.125l-0.015-0.143l-0.001-0.134l-0.022-0.144l0.022-0.135v-0.125l0.014-0.137l0.019-0.127l0.031-0.125
									l0.038-0.119l0.029-0.13l0.041-0.102l0.239,0.062l0.243,0.081l0.267,0.053l0.28,0.053l0.303,0.044l0.304,0.007h0.151
									l0.169-0.009l0.152-0.01l0.17-0.017l0.248-0.071l0.242-0.079l0.234-0.118l0.205-0.145l0.197-0.159l0.167-0.195l0.173-0.214
									l0.149-0.216l0.134-0.25l0.131-0.266l0.108-0.27l0.106-0.292l0.09-0.307l0.087-0.314l0.073-0.329L87.39,6.95l0.049-0.32
									l0.049-0.344l0.027-0.333l0.026-0.34l0.013-0.36l0.03-0.337V4.582V4.246L87.57,3.595l-0.034-0.616l-0.05-0.546l-0.059-0.517
									L87.35,1.302l-0.103-0.631l-0.146-0.644l-0.155-0.64l-0.077-0.324l-0.09-0.308l-0.091-0.322L86.582-1.88l-0.103-0.29
									l-0.098-0.288l-0.125-0.293l-0.122-0.27l-0.12-0.278L85.89-3.552l-0.129-0.229l-0.151-0.234l-0.136-0.212l-0.145-0.214
									l-0.145-0.163l-0.163-0.18l-0.162-0.157l-0.15-0.12l-0.174-0.121l-0.178-0.076l-0.183-0.062l-0.174-0.047L83.807-5.38
									h-0.191l-0.193,0.049L83.22-5.274L83.034-5.2l-0.192,0.098l-0.187,0.107l-0.181,0.154l-0.178,0.152l-0.164,0.167
									l-0.167,0.19L81.808-4.14l-0.151,0.227l-0.139,0.218l-0.137,0.229l-0.136,0.244l-0.127,0.258l-0.102,0.258l-0.102,0.272
									L80.814-2.16l-0.077,0.256l-0.076,0.274l-0.069,0.288l-0.055,0.271L80.49-0.792l-0.035,0.279v0.27l-0.016,0.271v0.262
									l0.019,0.26l0.036,0.245l0.049,0.23l0.064,0.243l0.072,0.212l0.062,0.171l0.08,0.154l0.071,0.138l0.083,0.156l0.091,0.12
									l0.091,0.128l0.085,0.112l0.107,0.111l0.087,0.101l0.096,0.106l0.106,0.079l0.116,0.085l0.107,0.066l0.102,0.072
									l0.106,0.064l0.119,0.05l0.104,0.042l0.104,0.045l0.129,0.037l0.104,0.025l0.098,0.017h0.113l0.099,0.009l0.113-0.009h0.096
									l0.09-0.018l0.105-0.025l0.089-0.036l0.084-0.045l0.096-0.044l0.08-0.051l0.072-0.062l0.14-0.107l0.105-0.129l0.109-0.136
									l0.105-0.118l0.154-0.264l0.15-0.229l0.116-0.199l0.084-0.151l0.047-0.039l0.028-0.039l0.023-0.014h0.017h0.019l0.016,0.014
									l0.095,0.085l0.113,0.119l0.086,0.123l0.083,0.112l0.098,0.147l0.077,0.163l0.073,0.155l0.078,0.185l0.045,0.181
									l0.062,0.177l0.043,0.215l0.048,0.2l0.031,0.205l0.038,0.212l0.027,0.206v0.231l0.018,0.215l-0.018,0.227V5.06l-0.017,0.222
									l-0.016,0.217l-0.039,0.226l-0.045,0.224l-0.04,0.219l-0.072,0.218l-0.056,0.199l-0.082,0.212l-0.075,0.201l-0.098,0.192
									L85.236,7.36l-0.128,0.178l-0.119,0.175L84.9,7.811l-0.099,0.085l-0.101,0.085L84.59,8.064l-0.11,0.081l-0.126,0.068
									l-0.133,0.073l-0.123,0.049L83.82,8.441l-0.288,0.072l-0.283,0.061l-0.294,0.067l-0.281,0.012l-0.277,0.029l-0.254,0.01
									l-0.234,0.011l-0.396,0.014l-0.262,0.027l-0.013,0.267l0.015,0.327l0.009,0.385l0.027,0.381l0.018,0.41l0.011,0.36
									l0.001,0.307l-0.012,0.25l-0.063,0.566l-0.088,0.507l-0.071,0.465l-0.103,0.418l-0.099,0.36l-0.111,0.346l-0.119,0.298
									l-0.148,0.276l-0.143,0.275l-0.148,0.242l-0.188,0.241l-0.186,0.217l-0.203,0.225l-0.214,0.229l-0.232,0.243l-0.266,0.252
									l-0.209,0.201l-0.206,0.186l-0.227,0.171l-0.225,0.167l-0.242,0.155l-0.253,0.16l-0.246,0.142l-0.261,0.132l-0.259,0.127
									l-0.256,0.121l-0.268,0.107l-0.267,0.106l-0.271,0.091l-0.271,0.089l-0.252,0.097l-0.274,0.057l-0.253,0.071l-0.263,0.069
									l-0.25,0.052l-0.247,0.048l-0.469,0.068l-0.438,0.048l-0.2,0.023l-0.21,0.001h-0.169h-0.173l-0.152-0.012l-0.14-0.022
									l-0.136-0.027L71.723,19l0.066-0.138l0.193-0.378l0.259-0.564l0.346-0.711l0.385-0.807l0.396-0.891l0.393-0.888l0.345-0.847
									l0.255-0.626l0.229-0.602l0.229-0.578l0.195-0.582l0.202-0.565l0.194-0.542l0.166-0.566l0.159-0.565l0.162-0.564
									l0.143-0.599l0.148-0.588l0.13-0.625l0.111-0.644l0.121-0.67l0.115-0.714l0.105-0.766l0.088-0.605l0.068-0.61l0.078-0.606
									l0.072-0.61l0.055-0.627l0.044-0.621L77.23-0.31l0.042-0.616l0.035-0.618l0.023-0.606v-0.637l-0.002-0.609L77.324-4.01
									L77.3-4.64l-0.035-0.621l-0.054-0.628l-0.07-0.835l-0.082-0.874l-0.077-0.878l-0.104-0.921L76.83-9.846l-0.074-0.457
									l-0.062-0.457l-0.062-0.439l-0.085-0.447l-0.083-0.45l-0.104-0.43L76.265-12.95z M73.53-13.304l0.107,0.357l0.073,0.36
									l0.083,0.373l0.074,0.392l0.065,0.382l0.058,0.397l0.048,0.396l0.03,0.391l0.016,0.393l0.011,0.398l0.002,0.384
									l-0.025,0.385l-0.026,0.359L73.992-7.97l-0.071,0.368l-0.083,0.337l-0.11,0.324L73.61-6.623l-0.146,0.284l-0.149,0.267
									l-0.19,0.256L72.927-5.58l-0.22,0.208l-0.255,0.179l-0.281,0.149l-0.312,0.109l-0.313,0.099l-0.357,0.054l-0.378,0.024
									l-0.4-0.016l-0.448-0.058l-0.469-0.085l-0.218-0.059l-0.229-0.087l-0.265-0.083l-0.267-0.118l-0.276-0.094l-0.271-0.107
									L67.681-5.57l-0.276-0.08l-0.279-0.084l-0.262-0.059l-0.128-0.01l-0.135-0.008h-0.113l-0.13,0.002L66.25-5.791l-0.101,0.028
									l-0.118,0.029l-0.1,0.048L65.839-5.63l-0.096,0.065l-0.085,0.086l-0.079,0.092l-0.224,0.355l-0.166,0.348l-0.112,0.345
									l-0.063,0.353l-0.024,0.337L65.03-3.3l0.066,0.325l0.098,0.348l0.138,0.343l0.18,0.342l0.201,0.345l0.232,0.344l0.256,0.348
									l0.271,0.354l0.295,0.354l0.319,0.376l0.659,0.739l0.701,0.76l0.352,0.395l0.351,0.399L69.5,2.87l0.337,0.431l0.334,0.42
									l0.322,0.43l0.315,0.453l0.294,0.454l0.276,0.462l0.243,0.471l0.229,0.518l0.203,0.477l0.086,0.293l0.077,0.283l0.071,0.313
									l0.052,0.314l0.037,0.323l0.04,0.329l0.02,0.33l0.009,0.342v0.341l-0.007,0.351l-0.021,0.334l-0.036,0.353l-0.033,0.337
									l-0.049,0.333l-0.058,0.333l-0.06,0.319l-0.046,0.226l-0.062,0.229L72,12.905l-0.058,0.229l-0.08,0.226l-0.092,0.247
									l-0.086,0.212l-0.099,0.236l-0.1,0.23l-0.109,0.24l-0.117,0.218l-0.118,0.23l-0.137,0.223l-0.136,0.227l-0.125,0.208
									l-0.147,0.211l-0.154,0.194L70.29,16.24l-0.179,0.195l-0.151,0.184l-0.175,0.19l-0.18,0.157l-0.202,0.169l-0.181,0.151
									l-0.184,0.146l-0.212,0.138l-0.21,0.115l-0.201,0.118l-0.225,0.11l-0.223,0.09l-0.225,0.075L67.51,18.14l-0.309,0.074
									l-0.303,0.062l-0.283,0.062l-0.288,0.057l-0.274,0.027l-0.263,0.042l-0.269,0.018l-0.258,0.014l-0.245,0.016l-0.251-0.015
									l-0.226-0.014l-0.239-0.023l-0.241-0.042l-0.219-0.05l-0.214-0.068l-0.213-0.079l-0.214-0.074l-0.216-0.101l-0.191-0.117
									l-0.215-0.126l-0.199-0.144l-0.186-0.159l-0.214-0.16l-0.196-0.184l-0.185-0.198l-0.208-0.219l-0.176-0.224l-0.209-0.26
									l-0.187-0.251l-0.204-0.272l-0.198-0.312l-0.193-0.301l-0.105-0.181l-0.074-0.175l-0.074-0.197l-0.083-0.223L59.83,14.11
									l-0.067-0.234l-0.04-0.259l-0.049-0.271l-0.046-0.277l-0.035-0.292l-0.022-0.295l-0.017-0.298l-0.012-0.302l-0.019-0.315
									l-0.001-0.311v-0.304l0.016-0.326l0.011-0.306l0.015-0.313l0.035-0.303l0.034-0.297l0.03-0.291l0.061-0.29l0.042-0.278
									l0.049-0.261l0.064-0.256l0.077-0.223l0.071-0.222l0.076-0.214l0.085-0.199l0.103-0.17l0.079-0.146l0.342-0.473l0.294-0.386
									l0.126-0.155l0.131-0.145l0.105-0.114L61.47,5.49l0.104-0.085l0.088-0.068l0.081-0.041l0.071-0.035l0.055-0.011h0.058
									l0.056,0.017l0.046,0.034l0.048,0.035l0.028,0.058l0.036,0.08l0.027,0.075l0.033,0.18l0.031,0.222l0.033,0.524l0.026,0.596
									l0.032,0.481l0.055,0.458l0.092,0.404l0.111,0.369l0.149,0.349l0.148,0.32l0.188,0.291l0.187,0.257l0.207,0.224l0.219,0.202
									l0.229,0.171l0.234,0.137l0.244,0.112l0.242,0.099l0.258,0.057l0.242,0.023l0.242,0.017l0.239-0.017l0.236-0.033
									l0.219-0.075l0.214-0.09l0.206-0.115l0.161-0.132l0.175-0.156l0.146-0.179l0.121-0.199l0.095-0.22l0.066-0.241l0.051-0.261
									l0.007-0.28l-0.022-0.3l-0.061-0.324l-0.089-0.349l-0.14-0.359l-0.161-0.345l-0.195-0.332l-0.208-0.34l-0.233-0.322
									L65.96,6.046l-0.271-0.321l-0.29-0.321l-0.306-0.302l-0.307-0.323l-0.322-0.323l-0.671-0.6l-0.691-0.63l-0.681-0.627
									L61.75,1.959l-0.32-0.33l-0.311-0.317l-0.312-0.356l-0.279-0.349l-0.281-0.333l-0.241-0.362l-0.233-0.354l-0.216-0.375
									l-0.19-0.38l-0.152-0.4l-0.141-0.407L58.965-2.41l-0.076-0.481L58.82-3.344l-0.052-0.452l-0.016-0.438v-0.431l0.013-0.411
									l0.026-0.394l0.062-0.391l0.081-0.375l0.088-0.354l0.1-0.349l0.117-0.34l0.122-0.318l0.148-0.301l0.155-0.289l0.149-0.284
									l0.178-0.273l0.182-0.247l0.188-0.243l0.198-0.228l0.202-0.22l0.2-0.201l0.215-0.178l0.195-0.187l0.207-0.151l0.215-0.162
									l0.221-0.132l0.195-0.126l0.216-0.109l0.198-0.094l0.2-0.081l0.203-0.089l0.293-0.092l0.269-0.062l0.271-0.05l0.258-0.047
									l0.254-0.032l0.25-0.021h0.233l0.242,0.021l0.224,0.029l0.224,0.028l0.229,0.036l0.21,0.04l0.434,0.123l0.428,0.13
									l0.416,0.15l0.431,0.144l0.425,0.151l0.438,0.143l0.234,0.051l0.229,0.058l0.232,0.036l0.242,0.052l0.259,0.02l0.252,0.022
									l0.265,0.015l0.272-0.002l0.134-0.016l0.138-0.016l0.12-0.027l0.135-0.041l0.105-0.041l0.131-0.04l0.102-0.074l0.104-0.062
									l0.107-0.069l0.102-0.076l0.103-0.09l0.093-0.097l0.183-0.201l0.17-0.205l0.171-0.222l0.16-0.241l0.163-0.253l0.153-0.246
									l0.294-0.526L73.53-13.304z M56.039-11.711l0.138,0.281l0.137,0.292l0.121,0.307l0.105,0.335l0.114,0.34l0.087,0.361
									l0.092,0.368l0.082,0.366l0.051,0.384L57.012-8.3l0.045,0.377l0.013,0.397l0.018,0.373L57.06-6.776l-0.031,0.385
									l-0.049,0.354l-0.059,0.356l-0.09,0.348l-0.122,0.321l-0.135,0.311l-0.158,0.298L56.24-4.136l-0.197,0.268l-0.246,0.227
									L55.543-3.45l-0.29,0.171l-0.308,0.147L54.604-3.03l-0.389,0.076l-0.402,0.045h-0.443l-0.471-0.042L52.669-3l-0.256-0.052
									l-0.258-0.062l-0.274-0.074l-0.28-0.082l-0.285-0.081L51.02-3.415L50.73-3.478L50.46-3.53l-0.284-0.02h-0.123h-0.135
									l-0.113,0.011l-0.127,0.016l-0.114,0.028l-0.105,0.026l-0.107,0.063l-0.092,0.06l-0.075,0.063l-0.098,0.082l-0.073,0.093
									l-0.056,0.09l-0.183,0.375l-0.131,0.366l-0.08,0.357L48.53-1.577l0.015,0.346l0.059,0.333l0.1,0.325l0.152,0.337
									l0.172,0.332l0.197,0.32l0.254,0.324l0.253,0.322l0.305,0.319l0.304,0.32l0.318,0.318l0.364,0.342l0.738,0.663l0.77,0.691
									l0.394,0.351l0.382,0.354L53.7,4.803l0.382,0.377l0.382,0.384l0.361,0.402l0.362,0.43L55.512,6.8l0.336,0.438l0.282,0.454
									l0.282,0.456l0.249,0.482l0.114,0.27l0.107,0.278l0.083,0.3l0.081,0.317l0.075,0.308l0.034,0.328l0.052,0.329l0.028,0.334
									l0.026,0.348l0.011,0.342v0.346l-0.008,0.342l-0.012,0.347l-0.021,0.345l-0.019,0.329l-0.032,0.342l-0.069,0.453
									l-0.076,0.453l-0.059,0.235l-0.055,0.231l-0.051,0.247l-0.084,0.22l-0.062,0.236l-0.072,0.23l-0.096,0.223l-0.091,0.226
									l-0.096,0.211l-0.117,0.223l-0.105,0.22l-0.111,0.208l-0.131,0.211l-0.115,0.208l-0.144,0.18l-0.146,0.188l-0.148,0.193
									l-0.155,0.181L55.04,18.77l-0.176,0.167L54.688,19.1l-0.179,0.147l-0.192,0.136l-0.191,0.133l-0.203,0.112l-0.215,0.125
									l-0.204,0.077l-0.237,0.101l-0.281,0.112l-0.293,0.086l-0.296,0.091l-0.255,0.073l-0.272,0.069l-0.263,0.064l-0.263,0.036
									l-0.25,0.04l-0.242,0.019l-0.245,0.016h-0.229l-0.235-0.009l-0.226-0.012l-0.218-0.028l-0.22-0.039l-0.222-0.056
									l-0.217-0.072l-0.21-0.077l-0.221-0.09l-0.205-0.102l-0.212-0.11l-0.212-0.143l-0.201-0.136l-0.205-0.155l-0.214-0.167
									l-0.215-0.18l-0.211-0.206l-0.217-0.211l-0.218-0.221l-0.228-0.234l-0.219-0.266l-0.218-0.26l-0.119-0.144l-0.111-0.169
									l-0.107-0.183l-0.091-0.207l-0.096-0.222l-0.085-0.228l-0.083-0.244l-0.073-0.257l-0.07-0.261l-0.067-0.28l-0.053-0.283
									l-0.061-0.295L44.77,14.7l-0.03-0.306l-0.04-0.284l-0.031-0.303l-0.015-0.318l-0.035-0.3l-0.007-0.303l-0.003-0.307v-0.286
									l0.008-0.298l0.018-0.277l0.022-0.28l0.018-0.252l0.031-0.261l0.033-0.236l0.057-0.225l0.053-0.228l0.051-0.198l0.065-0.18
									l0.08-0.16l0.129-0.287l0.12-0.242l0.116-0.224l0.126-0.199l0.122-0.168l0.096-0.155l0.097-0.131l0.102-0.109l0.09-0.103
									l0.091-0.071l0.078-0.055l0.075-0.027l0.074-0.029h0.065l0.067,0.013l0.064,0.016l0.059,0.046l0.054,0.068l0.06,0.066
									l0.047,0.06l0.042,0.09l0.043,0.106l0.042,0.09l0.033,0.122l0.08,0.241L47.064,9.1l0.056,0.291l0.046,0.303l0.076,0.478
									l0.109,0.423l0.132,0.397l0.139,0.35l0.168,0.342l0.192,0.295l0.2,0.25l0.218,0.215l0.222,0.199l0.233,0.158l0.241,0.138
									l0.233,0.098l0.25,0.078l0.236,0.045l0.253,0.021l0.237-0.016l0.239-0.027l0.218-0.061l0.225-0.076l0.204-0.113l0.197-0.113
									l0.173-0.148l0.166-0.161l0.133-0.187l0.124-0.208l0.096-0.229l0.056-0.237l0.048-0.241l0.013-0.283L52.175,10.8
									l-0.054-0.311l-0.092-0.305l-0.14-0.351l-0.164-0.345l-0.2-0.303l-0.227-0.301l-0.235-0.319l-0.262-0.284L50.517,7.99
									l-0.298-0.274l-0.333-0.272l-0.317-0.267l-0.35-0.265l-0.351-0.254l-0.734-0.523l-0.749-0.513l-0.754-0.512L45.905,4.56
									l-0.358-0.281L45.2,4.001L44.864,3.72l-0.326-0.301l-0.299-0.305l-0.293-0.327l-0.258-0.323l-0.272-0.337l-0.214-0.355
									L43.001,1.4l-0.177-0.369l-0.148-0.402l-0.139-0.464l-0.113-0.463l-0.082-0.451l-0.076-0.428l-0.028-0.424l-0.023-0.412
									l-0.003-0.404l0.011-0.379l0.038-0.377l0.062-0.366l0.065-0.365l0.085-0.344l0.099-0.332l0.116-0.328l0.12-0.303
									l0.148-0.294l0.138-0.288l0.16-0.269l0.163-0.262l0.177-0.245l0.178-0.239l0.191-0.229l0.183-0.191l0.201-0.205l0.195-0.182
									l0.199-0.169l0.192-0.153l0.204-0.161l0.197-0.117l0.186-0.122l0.204-0.098l0.191-0.087l0.258-0.114l0.253-0.092
									l0.246-0.076l0.228-0.07l0.245-0.042l0.23-0.035l0.226-0.03l0.22-0.012l0.223-0.002h0.209l0.215,0.014l0.204,0.012
									l0.412,0.058l0.431,0.077l0.85,0.188l0.897,0.185l0.237,0.026l0.247,0.026l0.256,0.026l0.256,0.023l0.269,0.01h0.272
									l0.289-0.012l0.283-0.007l0.148-0.028l0.114-0.021l0.146-0.034l0.105-0.049l0.124-0.039l0.109-0.07l0.102-0.062l0.106-0.087
									l0.089-0.078l0.093-0.085l0.086-0.086l0.097-0.106l0.153-0.225l0.151-0.225l0.145-0.255l0.13-0.264l0.12-0.269l0.137-0.271
									l0.243-0.554L56.039-11.711z M23.354-4.706l0.287,0.287l0.301,0.292l0.321,0.339l0.311,0.353l0.339,0.39l0.347,0.404
									l0.35,0.426l0.345,0.445l0.339,0.476l0.35,0.487l0.332,0.52l0.342,0.535l0.315,0.565l0.301,0.568l0.293,0.593l0.285,0.605
									l0.261,0.626l0.24,0.644l0.202,0.66l0.2,0.676l0.154,0.707l0.115,0.708l0.102,0.711l0.052,0.735l0.021,0.746L29.84,9.533
									l-0.048,0.791l-0.117,0.773l-0.156,0.791l-0.194,0.812l-0.262,0.805l-0.308,0.833l-0.095,0.246l-0.111,0.233l-0.115,0.242
									l-0.111,0.229l-0.133,0.244l-0.133,0.217l-0.146,0.222l-0.163,0.209l-0.16,0.21l-0.185,0.197l-0.189,0.182l-0.202,0.186
									l-0.22,0.174l-0.229,0.173l-0.248,0.146l-0.266,0.144l-0.433,0.204l-0.413,0.159l-0.42,0.146l-0.394,0.127l-0.366,0.095
									L23.7,18.394l-0.282,0.03l-0.224,0.027h-0.02L23.14,18.47l-0.016,0.025v0.03l-0.052,0.1l-0.009,0.135l-0.009,0.171
									l-0.017,0.183v0.213v0.229l0.026,0.231l0.011,0.237l0.052,0.259l0.037,0.244l0.04,0.252l0.077,0.225l0.074,0.228l0.09,0.213
									l0.285,0.525l0.315,0.462l0.353,0.405l0.366,0.371l0.423,0.298l0.416,0.246l0.45,0.19l0.459,0.163l0.478,0.097l0.477,0.054
									l0.499-0.001l0.511-0.053l0.492-0.084l0.499-0.139l0.503-0.175l0.491-0.237l0.489-0.267l0.463-0.286l0.463-0.35l0.442-0.375
									l0.424-0.427l0.398-0.434l0.372-0.494l0.344-0.521l0.317-0.543l0.271-0.598l0.247-0.612l0.208-0.641l0.156-0.672
									l0.123-0.702l0.064-0.729l0.019-0.746v-0.271l0.02-0.247l0.044-0.222l0.046-0.205l0.063-0.172l0.075-0.178l0.082-0.134
									l0.096-0.136l0.091-0.103l0.112-0.099l0.112-0.084l0.099-0.082l0.229-0.116l0.22-0.087l0.117-0.039l0.102-0.038l0.116-0.046
									h0.115l0.097-0.014h0.098l0.033,0.014h0.04l0.039,0.023l0.035,0.038l0.021,0.018l0.007,0.031l0.019,0.032l0.002,0.043
									l0.014,0.08v0.089l0.014,0.1l0.014,0.06l0.008,0.035l0.012,0.024l0.025,0.023l0.032,0.022l0.118,0.03l0.115,0.029
									l0.108,0.013l0.076-0.013l0.049-0.016l0.036-0.024l0.019-0.023l0.02-0.029l0.029-0.026l0.004-0.046l0.016-0.061v-0.049
									V12.51l-0.019-0.783l-0.025-0.72l-0.03-0.645l-0.039-0.575l-0.05-0.471l-0.023-0.199l-0.026-0.164l-0.028-0.138L37.822,8.73
									l-0.06-0.048L37.69,8.664l-0.097-0.033l-0.073,0.018l-0.097,0.016l-0.089,0.023l-0.053,0.043l-0.023,0.003l-0.041,0.03
									l-0.022,0.045l-0.05,0.058l-0.024,0.073l-0.033,0.09l-0.042,0.089l-0.055,0.2l-0.062,0.218l-0.066,0.225l-0.062,0.214
									l-0.047,0.099l-0.057,0.1l-0.054,0.097l-0.053,0.089l-0.123,0.12l-0.136,0.123l-0.128,0.083l-0.118,0.08l-0.132,0.048
									l-0.12,0.027l-0.062,0.025l-0.047-0.025h-0.063l-0.053-0.01l-0.062-0.016l-0.056-0.042l-0.038-0.028l-0.048-0.039
									l-0.04-0.039l-0.048-0.053l-0.043-0.076l-0.037-0.054L35.2,10.405l-0.014-0.092l-0.023-0.087l-0.025-0.1l-0.04-0.231V9.633
									l-0.004-0.149l-0.028-0.175l-0.04-0.213l-0.05-0.254l-0.146-0.55l-0.174-0.638l-0.192-0.689l-0.216-0.74l-0.2-0.759
									l-0.19-0.763L33.78,4.334l-0.074-0.365l-0.068-0.365l-0.063-0.339l-0.04-0.333L33.514,2.61l-0.019-0.287V2.038l0.026-0.243
									l0.04-0.216l0.07-0.208l0.097-0.152l0.115-0.133l0.139-0.092l0.169-0.058l0.201-0.01l0.371,0.057l0.345,0.112l0.316,0.168
									l0.306,0.215l0.288,0.279l0.255,0.318l0.245,0.368l0.232,0.413l0.196,0.442l0.187,0.494l0.177,0.496l0.161,0.547
									l0.145,0.575L37.7,5.982l0.115,0.602l0.099,0.605l0.097,0.627l0.078,0.641l0.064,0.633l0.046,0.627l0.05,0.643l0.04,0.617
									l0.023,0.614l0.028,0.596l0.027,1.147l0.002,1.059l-0.022,0.94l-0.027,0.771l-0.009,0.343l-0.009,0.381v0.429l0.001,0.425
									l0.011,0.477l0.026,0.488l0.04,0.489l0.055,0.516l0.049,0.519l0.088,0.5l0.088,0.536l0.104,0.491l0.077,0.258l0.063,0.25
									l0.081,0.245l0.074,0.247l0.079,0.224l0.098,0.241l0.094,0.226l0.096,0.22l0.14,0.243l0.138,0.251l0.135,0.228L40,24.55
									l0.167,0.213l0.17,0.207l0.178,0.202l0.192,0.189l0.201,0.18l0.183,0.168l0.216,0.153l0.214,0.145l0.204,0.125l0.228,0.115
									l0.229,0.104l0.231,0.088l0.236,0.073l0.233,0.053l0.253,0.052l0.235,0.021l0.245,0.002l0.247-0.002l0.265-0.023
									l0.245-0.052l0.246-0.059l0.265-0.09l0.253-0.092l0.253-0.121l0.253-0.15l0.247-0.144l0.255-0.2l0.246-0.218l0.126-0.099
									l0.118-0.124l0.11-0.124l0.11-0.125l0.091-0.136l0.104-0.112l0.07-0.121l0.079-0.133l0.143-0.25l0.104-0.26l0.1-0.259
									l0.095-0.273l0.068-0.252l0.058-0.266l0.037-0.258l0.042-0.264l0.06-0.496l0.05-0.51l-0.248,0.014l-0.229,0.002
									l-0.256-0.017l-0.219-0.018l-0.224-0.028l-0.21-0.018l-0.206-0.025l-0.188-0.048l-0.185-0.05l-0.183-0.047l-0.174-0.063
									l-0.163-0.053l-0.16-0.084l-0.156-0.073l-0.143-0.072l-0.141-0.083l-0.145-0.091l-0.122-0.083l-0.121-0.103l-0.107-0.091
									l-0.113-0.12l-0.104-0.111l-0.08-0.102l-0.112-0.111l-0.075-0.129l-0.079-0.119l-0.07-0.139l-0.078-0.124l-0.127-0.265
									l-0.096-0.274l-0.16-0.49l-0.146-0.498l-0.124-0.519l-0.119-0.521l-0.099-0.536l-0.076-0.555l-0.081-0.55l-0.071-0.583
									l-0.054-0.588l-0.042-0.591l-0.046-0.621l-0.042-0.612l-0.027-0.633l-0.026-0.638l-0.038-0.639l-0.014-0.671L42.25,9.065
									l-0.045-0.602l-0.069-0.618l-0.08-0.611l-0.093-0.613l-0.126-0.627l-0.13-0.615l-0.14-0.627l-0.156-0.589L41.227,3.56
									l-0.181-0.58l-0.199-0.568l-0.206-0.566l-0.217-0.534L40.2,0.796l-0.242-0.498l-0.277-0.532l-0.283-0.49l-0.141-0.23
									L39.11-1.197L38.967-1.41l-0.153-0.216l-0.147-0.203l-0.155-0.194l-0.152-0.187L38.183-2.38l-0.158-0.192l-0.166-0.149
									l-0.163-0.166l-0.182-0.15l-0.156-0.139l-0.178-0.14l-0.171-0.127l-0.19-0.116l-0.175-0.108l-0.176-0.111L36.282-3.86
									L36.09-3.956l-0.205-0.087l-0.188-0.064L35.5-4.181L35.297-4.24l-0.211-0.053l-0.202-0.047l-0.208-0.035l-0.224-0.037
									l-0.285-0.016l-0.31-0.022L33.55-4.446h-0.312l-0.289,0.023l-0.331,0.017l-0.317,0.037l-0.314,0.036l-0.644,0.102
									l-0.676,0.088L29.991-4.03L29.32-3.94l-0.365,0.035l-0.346,0.033l-0.353,0.039l-0.358,0.017l-0.359,0.011h-0.366
									L26.81-3.832l-0.389-0.017L26.068-3.9l-0.392-0.044l-0.365-0.09l-0.396-0.099l-0.379-0.101l-0.392-0.139l-0.389-0.151
									L23.354-4.706z M16.372,5.924l-0.421,0.647l-0.357,0.638l-0.297,0.633l-0.238,0.636l-0.181,0.633l-0.132,0.623l-0.081,0.622
									L14.64,10.98l0.018,0.628l0.041,0.624l0.079,0.634l0.119,0.611l0.144,0.644l0.155,0.624l0.216,0.658l0.2,0.633l0.219,0.656
									l0.246,0.651l0.247,0.663l0.249,0.661l0.24,0.68l0.258,0.688l0.245,0.695l0.239,0.702l0.221,0.718l0.215,0.722l0.185,0.749
									l0.177,0.763l0.139,0.765l0.113,0.782l0.089,0.798l0.046,0.813l-0.011,0.699l-0.059,0.655l-0.103,0.679l-0.174,0.638
									l-0.202,0.625l-0.248,0.602l-0.304,0.582l-0.331,0.55l-0.376,0.54l-0.41,0.512l-0.445,0.487l-0.474,0.441L15.1,34.961
									l-0.532,0.393l-0.547,0.337l-0.576,0.329l-0.601,0.271l-0.613,0.238l-0.626,0.206l-0.624,0.149l-0.66,0.103l-0.66,0.075
									L9,37.082l-0.669-0.035L7.665,36.96l-0.651-0.138l-0.678-0.181l-0.642-0.244l-0.642-0.293l-0.64-0.364l-0.626-0.407
									L3.19,34.859l-0.442-0.395l-0.392-0.421l-0.351-0.411l-0.319-0.429l-0.264-0.431l-0.229-0.446l-0.19-0.451l-0.142-0.448
									l-0.124-0.442L0.65,30.536l-0.024-0.431l-0.013-0.464l0.019-0.443l0.067-0.418l0.082-0.427l0.135-0.423l0.145-0.398
									l0.191-0.39l0.211-0.38l0.238-0.351l0.267-0.337l0.302-0.333l0.312-0.316l0.355-0.272l0.367-0.254l0.389-0.256l0.41-0.199
									l0.444-0.191L5,24.099l0.492-0.123l0.479-0.09l0.518-0.059l0.217-0.013h0.216h0.218l0.224-0.002l0.446,0.028l0.445,0.041
									l0.435,0.062l0.4,0.075l0.381,0.081l0.333,0.102l0.156,0.042l0.148,0.059l0.11,0.05l0.119,0.056l0.088,0.055l0.079,0.043
									l0.063,0.06l0.041,0.052l0.017,0.056v0.053l-0.017,0.052l-0.054,0.044l-0.062,0.06l-0.101,0.045l-0.118,0.026l-0.149,0.049
									L9.92,25.061l-0.219,0.102l-0.202,0.136l-0.204,0.164l-0.188,0.168l-0.203,0.204l-0.185,0.236L8.53,26.302l-0.162,0.275
									l-0.166,0.262l-0.137,0.275l-0.15,0.29l-0.118,0.303L7.69,28.005l-0.104,0.305l-0.078,0.297l-0.064,0.303l-0.048,0.298
									l-0.023,0.29v0.27l0.007,0.27l0.05,0.238l0.07,0.228l0.09,0.209l0.122,0.189l0.142,0.172l0.165,0.132l0.2,0.106l0.237,0.074
									l0.273,0.051H9.03l0.33-0.041l0.389-0.06l0.361-0.101l0.329-0.098l0.307-0.113l0.271-0.144l0.259-0.155l0.216-0.164
									l0.202-0.177l0.17-0.2l0.159-0.218l0.135-0.221l0.111-0.249l0.089-0.251l0.08-0.263l0.052-0.293l0.035-0.278l0.019-0.302
									v-0.312l-0.005-0.33l-0.03-0.338l-0.045-0.343l-0.053-0.374l-0.065-0.364l-0.085-0.375l-0.087-0.389l-0.102-0.391
									l-0.111-0.418l-0.11-0.4l-0.261-0.86l-0.27-0.883l-0.115-0.354l-0.134-0.351l-0.138-0.366l-0.142-0.369l-0.324-0.759
									l-0.293-0.766l-0.147-0.392l-0.141-0.387l-0.133-0.392l-0.133-0.395l-0.09-0.395l-0.089-0.388l-0.068-0.379L9.328,16.24
									l-0.03-0.426l-0.025-0.439l-0.012-0.439l0.012-0.438l0.021-0.43l0.044-0.446l0.051-0.427l0.07-0.43l0.085-0.422l0.097-0.417
									l0.125-0.416l0.132-0.395l0.144-0.394l0.168-0.387l0.186-0.38l0.196-0.361l0.226-0.354l0.23-0.328l0.252-0.341l0.284-0.315
									l0.288-0.283l0.312-0.288l0.335-0.273l0.348-0.241l0.359-0.224l0.395-0.214l0.413-0.182l0.411-0.176l0.459-0.15l0.464-0.115
									l0.499-0.106L16.372,5.924z M2.674-0.927l0.024,0.482l0.035,0.443L2.801,0.41l0.086,0.355l0.111,0.339L3.131,1.39
									l0.152,0.252l0.163,0.213l0.197,0.19l0.215,0.15l0.221,0.129l0.235,0.087L4.57,2.484l0.252,0.03l0.279,0.018L5.396,2.53
									l0.28-0.045l0.32-0.031L6.3,2.387l0.312-0.087l0.333-0.11l0.319-0.103l0.323-0.125l0.331-0.145l0.327-0.151l0.327-0.158
									L8.898,1.35l0.315-0.175l0.637-0.341l0.604-0.357l0.45-0.277l0.447-0.266l0.485-0.272l0.51-0.266l0.525-0.268l0.53-0.277
									l0.543-0.249l0.565-0.248l0.564-0.215l0.569-0.214l0.592-0.188l0.579-0.17l0.595-0.144l0.584-0.131l0.585-0.075l0.586-0.053
									l0.579-0.012l0.574,0.017l0.563,0.064l0.553,0.113l0.542,0.151l0.541,0.206l0.501,0.262l0.504,0.308l0.488,0.377l0.45,0.44
									l0.447,0.49l0.408,0.564l0.401,0.63l0.359,0.696l0.328,0.788l0.305,0.85l0.126,0.417l0.111,0.421l0.097,0.451l0.082,0.487
									l0.08,0.488l0.062,0.489l0.026,0.521l0.024,0.52L27.33,7.42l-0.017,0.544l-0.035,0.52l-0.063,0.529l-0.081,0.504
									l-0.102,0.504l-0.143,0.505l-0.152,0.46l-0.186,0.457l-0.23,0.438l-0.236,0.411l-0.281,0.386l-0.312,0.347l-0.336,0.323
									l-0.391,0.286l-0.413,0.231l-0.454,0.208l-0.489,0.154l-0.538,0.096l-0.575,0.06l-0.617,0.003l-0.657-0.065l-0.71-0.127
									l-0.748-0.171l-0.136-0.042l-0.119-0.065l-0.126-0.083l-0.116-0.092l-0.119-0.091l-0.091-0.125l-0.109-0.135l-0.08-0.143
									l-0.089-0.147l-0.096-0.161l-0.086-0.172l-0.058-0.175l-0.066-0.19l-0.059-0.187l-0.062-0.188l-0.037-0.204l-0.049-0.198
									l-0.028-0.188l-0.024-0.223l-0.026-0.206l-0.021-0.199l-0.011-0.196V10.41l0.01-0.194l0.012-0.197l0.01-0.186l0.024-0.188
									l0.031-0.167l0.044-0.161l0.047-0.157l0.053-0.146l0.06-0.139l0.285-0.573l0.219-0.407l0.094-0.159l0.075-0.127l0.067-0.1
									l0.045-0.051l0.038-0.045l0.034-0.005l0.031,0.005l0.021,0.045l0.016,0.122l-0.006,0.201l-0.009,0.231L19.135,8.28
									l0.001,0.274v0.279l0.021,0.138l0.011,0.131l0.023,0.121l0.036,0.12l0.039,0.093l0.042,0.087l0.064,0.068l0.072,0.052
									l0.296,0.146L20.042,9.9l0.26,0.082l0.244,0.039l0.223,0.016l0.214-0.025l0.188-0.054l0.163-0.08l0.157-0.095l0.138-0.146
									l0.12-0.142l0.097-0.178l0.093-0.183L22,8.925l0.041-0.228l0.037-0.234L22.1,8.219V7.951l-0.004-0.27L22.06,7.403
									l-0.053-0.276l-0.053-0.297L21.877,6.56l-0.101-0.289l-0.1-0.29l-0.123-0.28L21.422,5.42l-0.157-0.278l-0.164-0.247
									l-0.174-0.254L20.734,4.39L20.53,4.17l-0.257-0.227l-0.281-0.148l-0.315-0.116l-0.34-0.063l-0.354-0.018l-0.39,0.021
									l-0.396,0.062l-0.423,0.095L17.33,3.902l-0.462,0.16l-0.471,0.196L15.923,4.46l-0.498,0.231L14.936,4.93l-0.512,0.271
									l-0.515,0.256l-1.015,0.549l-1.028,0.558l-0.502,0.268L10.87,7.091l-0.481,0.256L9.906,7.58L9.445,7.8L8.986,7.989
									L8.56,8.154L8.137,8.3l-0.41,0.096L7.349,8.475L6.99,8.517L6.671,8.519L6.153,8.477l-0.504-0.05L5.185,8.352L4.748,8.271
									L4.546,8.228L4.328,8.167L4.132,8.129L3.946,8.056L3.752,7.987L3.578,7.905l-0.164-0.08L3.241,7.738L3.089,7.614
									L2.933,7.501L2.788,7.396L2.645,7.259L2.509,7.123L2.391,6.977L2.267,6.812L2.136,6.642L2.044,6.444L1.926,6.241
									L1.827,6.031L1.742,5.798L1.647,5.557L1.566,5.306L1.501,5.034L1.423,4.751L1.364,4.468L1.337,4.203L1.299,3.937
									l-0.01-0.249l-0.012-0.26l0.01-0.251l0.011-0.23l0.035-0.229l0.026-0.222l0.03-0.229l0.064-0.199l0.056-0.22l0.048-0.2
									l0.063-0.197l0.078-0.184l0.064-0.19l0.141-0.35l0.156-0.307l0.145-0.292l0.131-0.274l0.122-0.231l0.108-0.206l0.032-0.116
									l0.045-0.071l0.018-0.081L2.674-0.927z"/>
							</g>
						</g>
					</g>
				</g>
				<g>
					<path fill="#2D1A18" d="M21.927,53.488c-0.001-0.138,0.014-0.313,0.028-0.47l0.426-4.206l-1.812,0.005l0.123-1.152l5.423-0.013
						L26,48.805l-2.31,0.004l-0.401,4.031c-0.085,0.785,0.202,1.134,0.741,1.132c0.429,0,0.709-0.108,0.999-0.215l0.092,1.019
						c-0.321,0.19-0.83,0.394-1.509,0.396C22.618,55.174,21.929,54.799,21.927,53.488z"/>
					<path fill="#2D1A18" d="M26.388,52.92c-0.005-2.361,1.063-5.337,3.393-5.34c0.621-0.002,1.022,0.333,1.271,0.846l0.076-0.784
						l1.234-0.002l-0.747,7.351l-1.324,0.003l0.144-1.346c-0.672,0.879-1.581,1.524-2.444,1.524
						C26.83,55.174,26.391,54.248,26.388,52.92z M30.544,52.446l0.318-2.866c-0.256-0.449-0.649-0.885-1.15-0.884
						c-1.317,0.002-2.012,2.332-2.008,4.082c0.003,0.664,0.188,1.187,0.62,1.185C28.977,53.963,29.929,53.299,30.544,52.446z"/>
					<path fill="#2D1A18" d="M37.052,53.558c-0.001-0.163-0.001-0.342,0.03-0.526l0.457-4.352l-1.076,0.003l0.121-1.052l1.091-0.002
						l0.144-1.509l1.313-0.005l-0.15,1.511l2.154-0.004l-0.104,1.049l-2.167,0.005l-0.463,4.394
						c-0.08,0.672,0.123,0.903,0.513,0.902c0.39,0,1.036-0.169,1.557-0.405l0.271,0.989c-0.481,0.293-1.261,0.584-2.162,0.585
						C37.607,55.143,37.054,54.721,37.052,53.558z"/>
					<path fill="#2D1A18" d="M41.768,52.476c-0.008-3.023,1.466-5.034,3.742-5.036c1.577-0.004,2.321,1.249,2.326,2.588
						c0.003,2.206-0.906,5.095-3.736,5.101C42.594,55.133,41.771,53.966,41.768,52.476z M46.48,50.169
						c-0.001-1.185-0.397-1.66-1.271-1.659c-1.11,0.003-2.085,1.609-2.08,3.796c0.002,0.825,0.219,1.701,1.239,1.701
						C45.454,54.003,46.485,52.494,46.48,50.169z"/>
					<path fill="#2D1A18" d="M49.783,47.604l1.318-0.003l-0.093,0.869c0.565-0.415,1.459-0.93,2.33-0.932
						c1.189-0.001,1.757,0.742,1.761,2.22c0.004,2.314-1.112,5.312-3.981,5.317c-0.293,0-0.551-0.025-0.78-0.063l-0.319,2.901
						l-1.305,0.005L49.783,47.604z M53.77,49.76c-0.001-0.87-0.329-1.101-0.764-1.101c-0.629,0-1.563,0.525-2.11,0.879l-0.454,4.352
						c0.316,0.055,0.428,0.103,0.774,0.103C53.18,53.988,53.773,51.297,53.77,49.76z"/>
					<path fill="#2D1A18" d="M60.04,47.581l1.31-0.002l-0.099,1.08c0.588-0.489,1.527-1.272,2.474-1.274
						c0.927-0.001,1.305,0.374,1.332,1.193c0.7-0.564,1.635-1.197,2.536-1.199c0.978-0.002,1.33,0.406,1.334,1.435
						c0,0.23-0.031,0.497-0.05,0.793l-0.558,5.307l-1.318,0.004l0.543-5.036c0.023-0.239,0.041-0.442,0.04-0.607
						c-0.001-0.484-0.142-0.643-0.516-0.643c-0.57,0.002-1.292,0.479-2.061,1.069l-0.542,5.223l-1.315,0.002l0.542-5.033
						c0.022-0.244,0.037-0.444,0.036-0.61c0-0.483-0.137-0.626-0.51-0.626c-0.529,0.002-1.266,0.474-2.086,1.149l-0.546,5.125
						l-1.314,0.004L60.04,47.581z"/>
					<path fill="#2D1A18" d="M70.306,52.416c-0.007-3.022,1.479-5.032,3.756-5.035c1.565-0.004,2.317,1.25,2.319,2.588
						c0.005,2.205-0.911,5.092-3.735,5.1C71.142,55.073,70.307,53.904,70.306,52.416z M75.032,50.107
						c-0.004-1.183-0.407-1.659-1.273-1.657c-1.115,0.001-2.09,1.606-2.086,3.797c0.002,0.823,0.215,1.703,1.238,1.699
						C74.003,53.946,75.036,52.434,75.032,50.107z"/>
					<path fill="#2D1A18" d="M77.332,52.649c-0.007-3.023,1.847-5.137,4.38-5.18c0.077,0,0.196,0.01,0.262,0.01l0.294-2.756
						l1.318-0.005l-1.053,10.164l-1.321,0.001l0.134-1.222c-0.849,0.831-1.671,1.4-2.439,1.402
						C77.7,55.069,77.333,53.993,77.332,52.649z M81.456,52.476l0.401-3.887c-0.084-0.018-0.267-0.018-0.443-0.018
						c-1.528-0.005-2.765,1.837-2.762,3.827c0.003,1.151,0.214,1.457,0.589,1.457C79.898,53.854,80.925,53.005,81.456,52.476z"/>
					<path fill="#2D1A18" d="M84.146,52.27c-0.008-2.574,1.209-4.939,3.666-4.943c1.423-0.003,2.022,0.822,2.023,1.758
						c0.002,1.156-1.036,1.722-2.087,2.091l-2.244,0.811v0.313c0.001,1.059,0.217,1.599,0.781,1.598
						c0.677-0.002,1.466-0.321,2.277-0.758l0.472,0.942c-0.853,0.502-1.762,0.956-3.009,0.957
						C84.511,55.044,84.148,53.658,84.146,52.27z M87.611,50.107c0.607-0.228,0.945-0.582,0.944-0.956
						c0-0.546-0.39-0.76-0.784-0.758c-1.292,0.001-1.91,1.208-2.152,2.493L87.611,50.107z"/>
					<path fill="#2D1A18" d="M91.614,44.713l1.337-0.002l-1.059,10.152l-1.323,0.006L91.614,44.713z"/>
					<path fill="#2D1A18" d="M98.265,53.331c-0.003-0.141,0.015-0.315,0.019-0.473l0.431-4.206l-1.803,0.005l0.11-1.152l5.431-0.012
						l-0.124,1.15l-2.296,0.007l-0.409,4.032c-0.075,0.781,0.198,1.131,0.739,1.13c0.431,0,0.71-0.108,1-0.215l0.091,1.02
						c-0.327,0.19-0.831,0.394-1.512,0.394C98.952,55.014,98.265,54.641,98.265,53.331z"/>
					<path fill="#2D1A18" d="M107.535,49.797c0.023-0.312,0.053-0.536,0.053-0.711c-0.002-0.407-0.108-0.54-0.541-0.538
						c-0.537,0-1.879,0.96-2.203,1.164l-0.543,5.126l-1.326,0.002l0.769-7.349l1.323-0.004l-0.11,1.084
						c0.532-0.396,1.616-1.274,2.598-1.276c1.042-0.002,1.377,0.358,1.381,1.317c0,0.254-0.043,0.564-0.071,0.907l-0.856,8.261
						l-1.326,0.003L107.535,49.797z"/>
					<path fill="#2D1A18" d="M113.614,56.839c0.236-0.424,0.715-1.316,0.715-1.749c0-0.146-0.062-0.257-0.204-0.257
						c-0.641,0.004-1.285,0.136-1.942,0.138c-1.504,0.004-1.876-1.276-1.878-2.735c-0.007-2.618,1.337-4.961,3.716-4.964
						c0.826-0.002,1.474,0.332,1.812,0.649l-0.663,0.859c-0.32-0.229-0.695-0.414-1.181-0.412c-1.891,0.005-2.315,2.438-2.311,3.88
						c0.002,1.298,0.433,1.561,0.921,1.561c0.673-0.004,1.462-0.182,2.097-0.182c0.591-0.002,0.782,0.461,0.784,0.9
						c0.002,0.808-0.615,1.987-0.928,2.43L113.614,56.839z"/>
					<path fill="#2D1A18" d="M120.676,54.698c-0.162-2.962-1.104-5.943-1.562-7.239l1.468-0.004c0.316,0.85,0.921,3.146,1.171,5.718
						c0.977-1.736,1.866-3.869,2.114-5.727h1.411c-0.34,2.471-2.222,5.422-3.321,7.384c0,0.145,0.019,0.287,0.021,0.438
						c0.001,0.856-0.105,1.706-0.242,2.497l-1.329,0.002C120.43,56.665,120.568,55.709,120.676,54.698z"/>
					<path fill="#2D1A18" d="M125.468,53.032c0-0.96,0.528-1.857,1.615-2.253c-0.592-0.202-1.008-0.721-1.011-1.355
						c-0.002-1.146,0.98-2.156,2.822-2.157c0.899-0.006,1.561,0.253,1.955,0.504l-0.413,0.907c-0.349-0.162-0.964-0.358-1.573-0.356
						c-0.939,0.001-1.485,0.329-1.485,1.124c0.002,0.69,0.582,0.943,1.255,0.943l0.839-0.002l-0.107,1.02l-1.008,0.002
						c-0.789,0.002-1.495,0.44-1.493,1.339c0.002,0.728,0.512,1.079,1.43,1.076c0.552,0,1.324-0.212,2.004-0.513l0.417,0.975
						c-0.661,0.347-1.668,0.667-2.712,0.67C126.361,54.957,125.473,54.188,125.468,53.032z"/>
					<path fill="#2D1A18" d="M131.857,52.748c0-0.123,0.011-0.318,0.037-0.511l0.489-4.807l1.302-0.002l-0.482,4.694
						c-0.014,0.168-0.027,0.311-0.027,0.451c0.001,0.957,0.455,1.24,1.151,1.238c1.009-0.001,1.907-1.285,1.902-3.493
						c-0.002-0.874-0.186-1.871-0.596-2.895l1.312-0.004c0.439,1.022,0.601,2.002,0.603,2.92c0.005,2.722-1.427,4.581-3.328,4.584
						C132.873,54.928,131.861,54.402,131.857,52.748z M135.225,44.226l1.367-0.004l-1.132,2.113l-1.082,0.012L135.225,44.226z"/>
					<path fill="#2D1A18" d="M138.527,52.235c-0.007-2.594,1.305-5.065,3.997-4.964l3.02,0.13l-0.132,1.081l-1.216-0.051
						c0.283,0.445,0.433,0.977,0.433,1.598c0.006,2.413-1.165,4.893-3.758,4.897C139.455,54.929,138.531,53.886,138.527,52.235z
						 M143.297,50.089c-0.001-0.504-0.054-1.2-0.51-1.715l-0.451-0.021c-1.675-0.091-2.455,1.896-2.452,3.712
						c0.002,1.088,0.341,1.743,1.245,1.743C142.473,53.803,143.303,51.89,143.297,50.089z"/>
					<path fill="#2D1A18" d="M150.906,49.706c0.029-0.311,0.052-0.536,0.052-0.711c0-0.404-0.107-0.54-0.533-0.538
						c-0.543,0-1.885,0.961-2.207,1.166l-0.545,5.123l-1.321,0.003l0.774-7.351l1.315-0.004l-0.102,1.084
						c0.524-0.396,1.612-1.271,2.591-1.273c1.033-0.002,1.377,0.357,1.377,1.316c0,0.256-0.039,0.566-0.066,0.908l-0.859,8.259
						l-1.338,0.003L150.906,49.706z"/>
					<path fill="#2D1A18" d="M156.987,56.749c0.243-0.429,0.713-1.319,0.711-1.749c0-0.146-0.057-0.257-0.209-0.257
						c-0.627,0.002-1.279,0.134-1.936,0.136c-1.501,0.004-1.867-1.275-1.87-2.738c-0.008-2.612,1.325-4.954,3.714-4.96
						c0.819-0.002,1.466,0.334,1.798,0.647l-0.648,0.86c-0.327-0.231-0.703-0.412-1.187-0.411c-1.887,0.003-2.316,2.436-2.313,3.878
						c0.004,1.301,0.438,1.559,0.914,1.559c0.685-0.002,1.471-0.178,2.105-0.178c0.596-0.002,0.789,0.461,0.789,0.9
						c0.001,0.805-0.618,1.986-0.925,2.431L156.987,56.749z"/>
				</g>
			</g>
		</g>
	</g>
</g>
</svg>
